<svg width="1363" height="163" viewBox="0 0 1363 163" fill="none" xmlns="http://www.w3.org/2000/svg">
<path d="M0 15C0 6.71573 6.71573 0 15 0H37V163H15C6.71573 163 0 156.284 0 148V15Z" fill="#424242"/>
<rect width="1097" height="163" transform="translate(37)" fill="#F0F0F0"/>
<path d="M101.906 53.9219L94.3945 51.2383V48.0859L104.602 52.375V54.6367L101.906 53.9219ZM94.3945 56.1719L101.918 53.4297L104.602 52.7852V55.0352L94.3945 59.3242V56.1719ZM121.781 56.5352C121.781 56.2305 121.734 55.957 121.641 55.7148C121.555 55.4648 121.391 55.2383 121.148 55.0352C120.906 54.8242 120.566 54.6172 120.129 54.4141C119.691 54.2109 119.125 54 118.43 53.7812C117.656 53.5312 116.922 53.25 116.227 52.9375C115.539 52.625 114.93 52.2617 114.398 51.8477C113.875 51.4258 113.461 50.9375 113.156 50.3828C112.859 49.8281 112.711 49.1836 112.711 48.4492C112.711 47.7383 112.867 47.0938 113.18 46.5156C113.492 45.9297 113.93 45.4297 114.492 45.0156C115.055 44.5938 115.719 44.2695 116.484 44.043C117.258 43.8164 118.105 43.7031 119.027 43.7031C120.285 43.7031 121.383 43.9297 122.32 44.3828C123.258 44.8359 123.984 45.457 124.5 46.2461C125.023 47.0352 125.285 47.9375 125.285 48.9531H121.793C121.793 48.4531 121.688 48.0156 121.477 47.6406C121.273 47.2578 120.961 46.957 120.539 46.7383C120.125 46.5195 119.602 46.4102 118.969 46.4102C118.359 46.4102 117.852 46.5039 117.445 46.6914C117.039 46.8711 116.734 47.1172 116.531 47.4297C116.328 47.7344 116.227 48.0781 116.227 48.4609C116.227 48.75 116.297 49.0117 116.438 49.2461C116.586 49.4805 116.805 49.6992 117.094 49.9023C117.383 50.1055 117.738 50.2969 118.16 50.4766C118.582 50.6562 119.07 50.832 119.625 51.0039C120.555 51.2852 121.371 51.6016 122.074 51.9531C122.785 52.3047 123.379 52.6992 123.855 53.1367C124.332 53.5742 124.691 54.0703 124.934 54.625C125.176 55.1797 125.297 55.8086 125.297 56.5117C125.297 57.2539 125.152 57.918 124.863 58.5039C124.574 59.0898 124.156 59.5859 123.609 59.9922C123.062 60.3984 122.41 60.707 121.652 60.918C120.895 61.1289 120.047 61.2344 119.109 61.2344C118.266 61.2344 117.434 61.125 116.613 60.9062C115.793 60.6797 115.047 60.3398 114.375 59.8867C113.711 59.4336 113.18 58.8555 112.781 58.1523C112.383 57.4492 112.184 56.6172 112.184 55.6562H115.711C115.711 56.1875 115.793 56.6367 115.957 57.0039C116.121 57.3711 116.352 57.668 116.648 57.8945C116.953 58.1211 117.312 58.2852 117.727 58.3867C118.148 58.4883 118.609 58.5391 119.109 58.5391C119.719 58.5391 120.219 58.4531 120.609 58.2812C121.008 58.1094 121.301 57.8711 121.488 57.5664C121.684 57.2617 121.781 56.918 121.781 56.5352ZM133.688 48.3203V50.7109H126.305V48.3203H133.688ZM128.133 45.1914H131.508V57.1797C131.508 57.5469 131.555 57.8281 131.648 58.0234C131.75 58.2188 131.898 58.3555 132.094 58.4336C132.289 58.5039 132.535 58.5391 132.832 58.5391C133.043 58.5391 133.23 58.5312 133.395 58.5156C133.566 58.4922 133.711 58.4688 133.828 58.4453L133.84 60.9297C133.551 61.0234 133.238 61.0977 132.902 61.1523C132.566 61.207 132.195 61.2344 131.789 61.2344C131.047 61.2344 130.398 61.1133 129.844 60.8711C129.297 60.6211 128.875 60.2227 128.578 59.6758C128.281 59.1289 128.133 58.4102 128.133 57.5195V45.1914ZM142.453 58.1406V52.4922C142.453 52.0859 142.387 51.7383 142.254 51.4492C142.121 51.1523 141.914 50.9219 141.633 50.7578C141.359 50.5938 141.004 50.5117 140.566 50.5117C140.191 50.5117 139.867 50.5781 139.594 50.7109C139.32 50.8359 139.109 51.0195 138.961 51.2617C138.812 51.4961 138.738 51.7734 138.738 52.0938H135.363C135.363 51.5547 135.488 51.043 135.738 50.5586C135.988 50.0742 136.352 49.6484 136.828 49.2812C137.305 48.9062 137.871 48.6133 138.527 48.4023C139.191 48.1914 139.934 48.0859 140.754 48.0859C141.738 48.0859 142.613 48.25 143.379 48.5781C144.145 48.9062 144.746 49.3984 145.184 50.0547C145.629 50.7109 145.852 51.5312 145.852 52.5156V57.9414C145.852 58.6367 145.895 59.207 145.98 59.6523C146.066 60.0898 146.191 60.4727 146.355 60.8008V61H142.945C142.781 60.6562 142.656 60.2266 142.57 59.7109C142.492 59.1875 142.453 58.6641 142.453 58.1406ZM142.898 53.2773L142.922 55.1875H141.035C140.59 55.1875 140.203 55.2383 139.875 55.3398C139.547 55.4414 139.277 55.5859 139.066 55.7734C138.855 55.9531 138.699 56.1641 138.598 56.4062C138.504 56.6484 138.457 56.9141 138.457 57.2031C138.457 57.4922 138.523 57.7539 138.656 57.9883C138.789 58.2148 138.98 58.3945 139.23 58.5273C139.48 58.6523 139.773 58.7148 140.109 58.7148C140.617 58.7148 141.059 58.6133 141.434 58.4102C141.809 58.207 142.098 57.957 142.301 57.6602C142.512 57.3633 142.621 57.082 142.629 56.8164L143.52 58.2461C143.395 58.5664 143.223 58.8984 143.004 59.2422C142.793 59.5859 142.523 59.9102 142.195 60.2148C141.867 60.5117 141.473 60.7578 141.012 60.9531C140.551 61.1406 140.004 61.2344 139.371 61.2344C138.566 61.2344 137.836 61.0742 137.18 60.7539C136.531 60.4258 136.016 59.9766 135.633 59.4062C135.258 58.8281 135.07 58.1719 135.07 57.4375C135.07 56.7734 135.195 56.1836 135.445 55.668C135.695 55.1523 136.062 54.7188 136.547 54.3672C137.039 54.0078 137.652 53.7383 138.387 53.5586C139.121 53.3711 139.973 53.2773 140.941 53.2773H142.898ZM151.828 51.0859V61H148.453V48.3203H151.629L151.828 51.0859ZM155.648 48.2383L155.59 51.3672C155.426 51.3438 155.227 51.3242 154.992 51.3086C154.766 51.2852 154.559 51.2734 154.371 51.2734C153.895 51.2734 153.48 51.3359 153.129 51.4609C152.785 51.5781 152.496 51.7539 152.262 51.9883C152.035 52.2227 151.863 52.5078 151.746 52.8438C151.637 53.1797 151.574 53.5625 151.559 53.9922L150.879 53.7812C150.879 52.9609 150.961 52.207 151.125 51.5195C151.289 50.8242 151.527 50.2188 151.84 49.7031C152.16 49.1875 152.551 48.7891 153.012 48.5078C153.473 48.2266 154 48.0859 154.594 48.0859C154.781 48.0859 154.973 48.1016 155.168 48.1328C155.363 48.1562 155.523 48.1914 155.648 48.2383ZM164.039 48.3203V50.7109H156.656V48.3203H164.039ZM158.484 45.1914H161.859V57.1797C161.859 57.5469 161.906 57.8281 162 58.0234C162.102 58.2188 162.25 58.3555 162.445 58.4336C162.641 58.5039 162.887 58.5391 163.184 58.5391C163.395 58.5391 163.582 58.5312 163.746 58.5156C163.918 58.4922 164.062 58.4688 164.18 58.4453L164.191 60.9297C163.902 61.0234 163.59 61.0977 163.254 61.1523C162.918 61.207 162.547 61.2344 162.141 61.2344C161.398 61.2344 160.75 61.1133 160.195 60.8711C159.648 60.6211 159.227 60.2227 158.93 59.6758C158.633 59.1289 158.484 58.4102 158.484 57.5195V45.1914ZM173.461 57.9648V48.3203H176.836V61H173.66L173.461 57.9648ZM173.836 55.3633L174.832 55.3398C174.832 56.1836 174.734 56.9688 174.539 57.6953C174.344 58.4141 174.051 59.0391 173.66 59.5703C173.27 60.0938 172.777 60.5039 172.184 60.8008C171.59 61.0898 170.891 61.2344 170.086 61.2344C169.469 61.2344 168.898 61.1484 168.375 60.9766C167.859 60.7969 167.414 60.5195 167.039 60.1445C166.672 59.7617 166.383 59.2734 166.172 58.6797C165.969 58.0781 165.867 57.3555 165.867 56.5117V48.3203H169.242V56.5352C169.242 56.9102 169.285 57.2266 169.371 57.4844C169.465 57.7422 169.594 57.9531 169.758 58.1172C169.922 58.2812 170.113 58.3984 170.332 58.4688C170.559 58.5391 170.809 58.5742 171.082 58.5742C171.777 58.5742 172.324 58.4336 172.723 58.1523C173.129 57.8711 173.414 57.4883 173.578 57.0039C173.75 56.5117 173.836 55.9648 173.836 55.3633ZM182.789 50.7578V65.875H179.414V48.3203H182.543L182.789 50.7578ZM190.816 54.5195V54.7656C190.816 55.6875 190.707 56.543 190.488 57.332C190.277 58.1211 189.965 58.8086 189.551 59.3945C189.137 59.9727 188.621 60.4258 188.004 60.7539C187.395 61.0742 186.691 61.2344 185.895 61.2344C185.121 61.2344 184.449 61.0781 183.879 60.7656C183.309 60.4531 182.828 60.0156 182.438 59.4531C182.055 58.8828 181.746 58.2227 181.512 57.4727C181.277 56.7227 181.098 55.918 180.973 55.0586V54.4141C181.098 53.4922 181.277 52.6484 181.512 51.8828C181.746 51.1094 182.055 50.4414 182.438 49.8789C182.828 49.3086 183.305 48.8672 183.867 48.5547C184.438 48.2422 185.105 48.0859 185.871 48.0859C186.676 48.0859 187.383 48.2383 187.992 48.543C188.609 48.8477 189.125 49.2852 189.539 49.8555C189.961 50.4258 190.277 51.1055 190.488 51.8945C190.707 52.6836 190.816 53.5586 190.816 54.5195ZM187.43 54.7656V54.5195C187.43 53.9805 187.383 53.4844 187.289 53.0312C187.203 52.5703 187.062 52.168 186.867 51.8242C186.68 51.4805 186.43 51.2148 186.117 51.0273C185.812 50.832 185.441 50.7344 185.004 50.7344C184.543 50.7344 184.148 50.8086 183.82 50.957C183.5 51.1055 183.238 51.3203 183.035 51.6016C182.832 51.8828 182.68 52.2188 182.578 52.6094C182.477 53 182.414 53.4414 182.391 53.9336V55.5625C182.43 56.1406 182.539 56.6602 182.719 57.1211C182.898 57.5742 183.176 57.9336 183.551 58.1992C183.926 58.4648 184.418 58.5977 185.027 58.5977C185.473 58.5977 185.848 58.5 186.152 58.3047C186.457 58.1016 186.703 57.8242 186.891 57.4727C187.086 57.1211 187.223 56.7148 187.301 56.2539C187.387 55.793 187.43 55.2969 187.43 54.7656ZM206.039 46.8555L201.398 61H197.66L204 43.9375H206.379L206.039 46.8555ZM209.895 61L205.242 46.8555L204.867 43.9375H207.27L213.645 61H209.895ZM209.684 54.6484V57.4023H200.672V54.6484H209.684ZM221.871 57.4961C221.871 57.2539 221.801 57.0352 221.66 56.8398C221.52 56.6445 221.258 56.4648 220.875 56.3008C220.5 56.1289 219.957 55.9727 219.246 55.832C218.605 55.6914 218.008 55.5156 217.453 55.3047C216.906 55.0859 216.43 54.8242 216.023 54.5195C215.625 54.2148 215.312 53.8555 215.086 53.4414C214.859 53.0195 214.746 52.5391 214.746 52C214.746 51.4688 214.859 50.9688 215.086 50.5C215.32 50.0312 215.652 49.6172 216.082 49.2578C216.52 48.8906 217.051 48.6055 217.676 48.4023C218.309 48.1914 219.02 48.0859 219.809 48.0859C220.91 48.0859 221.855 48.2617 222.645 48.6133C223.441 48.9648 224.051 49.4492 224.473 50.0664C224.902 50.6758 225.117 51.3711 225.117 52.1523H221.742C221.742 51.8242 221.672 51.5312 221.531 51.2734C221.398 51.0078 221.188 50.8008 220.898 50.6523C220.617 50.4961 220.25 50.418 219.797 50.418C219.422 50.418 219.098 50.4844 218.824 50.6172C218.551 50.7422 218.34 50.9141 218.191 51.1328C218.051 51.3438 217.98 51.5781 217.98 51.8359C217.98 52.0312 218.02 52.207 218.098 52.3633C218.184 52.5117 218.32 52.6484 218.508 52.7734C218.695 52.8984 218.938 53.0156 219.234 53.125C219.539 53.2266 219.914 53.3203 220.359 53.4062C221.273 53.5938 222.09 53.8398 222.809 54.1445C223.527 54.4414 224.098 54.8477 224.52 55.3633C224.941 55.8711 225.152 56.5391 225.152 57.3672C225.152 57.9297 225.027 58.4453 224.777 58.9141C224.527 59.3828 224.168 59.793 223.699 60.1445C223.23 60.4883 222.668 60.7578 222.012 60.9531C221.363 61.1406 220.633 61.2344 219.82 61.2344C218.641 61.2344 217.641 61.0234 216.82 60.6016C216.008 60.1797 215.391 59.6445 214.969 58.9961C214.555 58.3398 214.348 57.668 214.348 56.9805H217.547C217.562 57.4414 217.68 57.8125 217.898 58.0938C218.125 58.375 218.41 58.5781 218.754 58.7031C219.105 58.8281 219.484 58.8906 219.891 58.8906C220.328 58.8906 220.691 58.832 220.98 58.7148C221.27 58.5898 221.488 58.4258 221.637 58.2227C221.793 58.0117 221.871 57.7695 221.871 57.4961ZM234.199 57.4961C234.199 57.2539 234.129 57.0352 233.988 56.8398C233.848 56.6445 233.586 56.4648 233.203 56.3008C232.828 56.1289 232.285 55.9727 231.574 55.832C230.934 55.6914 230.336 55.5156 229.781 55.3047C229.234 55.0859 228.758 54.8242 228.352 54.5195C227.953 54.2148 227.641 53.8555 227.414 53.4414C227.188 53.0195 227.074 52.5391 227.074 52C227.074 51.4688 227.188 50.9688 227.414 50.5C227.648 50.0312 227.98 49.6172 228.41 49.2578C228.848 48.8906 229.379 48.6055 230.004 48.4023C230.637 48.1914 231.348 48.0859 232.137 48.0859C233.238 48.0859 234.184 48.2617 234.973 48.6133C235.77 48.9648 236.379 49.4492 236.801 50.0664C237.23 50.6758 237.445 51.3711 237.445 52.1523H234.07C234.07 51.8242 234 51.5312 233.859 51.2734C233.727 51.0078 233.516 50.8008 233.227 50.6523C232.945 50.4961 232.578 50.418 232.125 50.418C231.75 50.418 231.426 50.4844 231.152 50.6172C230.879 50.7422 230.668 50.9141 230.52 51.1328C230.379 51.3438 230.309 51.5781 230.309 51.8359C230.309 52.0312 230.348 52.207 230.426 52.3633C230.512 52.5117 230.648 52.6484 230.836 52.7734C231.023 52.8984 231.266 53.0156 231.562 53.125C231.867 53.2266 232.242 53.3203 232.688 53.4062C233.602 53.5938 234.418 53.8398 235.137 54.1445C235.855 54.4414 236.426 54.8477 236.848 55.3633C237.27 55.8711 237.48 56.5391 237.48 57.3672C237.48 57.9297 237.355 58.4453 237.105 58.9141C236.855 59.3828 236.496 59.793 236.027 60.1445C235.559 60.4883 234.996 60.7578 234.34 60.9531C233.691 61.1406 232.961 61.2344 232.148 61.2344C230.969 61.2344 229.969 61.0234 229.148 60.6016C228.336 60.1797 227.719 59.6445 227.297 58.9961C226.883 58.3398 226.676 57.668 226.676 56.9805H229.875C229.891 57.4414 230.008 57.8125 230.227 58.0938C230.453 58.375 230.738 58.5781 231.082 58.7031C231.434 58.8281 231.812 58.8906 232.219 58.8906C232.656 58.8906 233.02 58.832 233.309 58.7148C233.598 58.5898 233.816 58.4258 233.965 58.2227C234.121 58.0117 234.199 57.7695 234.199 57.4961ZM243.234 48.3203V61H239.848V48.3203H243.234ZM239.637 45.0156C239.637 44.5234 239.809 44.1172 240.152 43.7969C240.496 43.4766 240.957 43.3164 241.535 43.3164C242.105 43.3164 242.562 43.4766 242.906 43.7969C243.258 44.1172 243.434 44.5234 243.434 45.0156C243.434 45.5078 243.258 45.9141 242.906 46.2344C242.562 46.5547 242.105 46.7148 241.535 46.7148C240.957 46.7148 240.496 46.5547 240.152 46.2344C239.809 45.9141 239.637 45.5078 239.637 45.0156ZM252.879 57.4961C252.879 57.2539 252.809 57.0352 252.668 56.8398C252.527 56.6445 252.266 56.4648 251.883 56.3008C251.508 56.1289 250.965 55.9727 250.254 55.832C249.613 55.6914 249.016 55.5156 248.461 55.3047C247.914 55.0859 247.438 54.8242 247.031 54.5195C246.633 54.2148 246.32 53.8555 246.094 53.4414C245.867 53.0195 245.754 52.5391 245.754 52C245.754 51.4688 245.867 50.9688 246.094 50.5C246.328 50.0312 246.66 49.6172 247.09 49.2578C247.527 48.8906 248.059 48.6055 248.684 48.4023C249.316 48.1914 250.027 48.0859 250.816 48.0859C251.918 48.0859 252.863 48.2617 253.652 48.6133C254.449 48.9648 255.059 49.4492 255.48 50.0664C255.91 50.6758 256.125 51.3711 256.125 52.1523H252.75C252.75 51.8242 252.68 51.5312 252.539 51.2734C252.406 51.0078 252.195 50.8008 251.906 50.6523C251.625 50.4961 251.258 50.418 250.805 50.418C250.43 50.418 250.105 50.4844 249.832 50.6172C249.559 50.7422 249.348 50.9141 249.199 51.1328C249.059 51.3438 248.988 51.5781 248.988 51.8359C248.988 52.0312 249.027 52.207 249.105 52.3633C249.191 52.5117 249.328 52.6484 249.516 52.7734C249.703 52.8984 249.945 53.0156 250.242 53.125C250.547 53.2266 250.922 53.3203 251.367 53.4062C252.281 53.5938 253.098 53.8398 253.816 54.1445C254.535 54.4414 255.105 54.8477 255.527 55.3633C255.949 55.8711 256.16 56.5391 256.16 57.3672C256.16 57.9297 256.035 58.4453 255.785 58.9141C255.535 59.3828 255.176 59.793 254.707 60.1445C254.238 60.4883 253.676 60.7578 253.02 60.9531C252.371 61.1406 251.641 61.2344 250.828 61.2344C249.648 61.2344 248.648 61.0234 247.828 60.6016C247.016 60.1797 246.398 59.6445 245.977 58.9961C245.562 58.3398 245.355 57.668 245.355 56.9805H248.555C248.57 57.4414 248.688 57.8125 248.906 58.0938C249.133 58.375 249.418 58.5781 249.762 58.7031C250.113 58.8281 250.492 58.8906 250.898 58.8906C251.336 58.8906 251.699 58.832 251.988 58.7148C252.277 58.5898 252.496 58.4258 252.645 58.2227C252.801 58.0117 252.879 57.7695 252.879 57.4961ZM264.562 48.3203V50.7109H257.18V48.3203H264.562ZM259.008 45.1914H262.383V57.1797C262.383 57.5469 262.43 57.8281 262.523 58.0234C262.625 58.2188 262.773 58.3555 262.969 58.4336C263.164 58.5039 263.41 58.5391 263.707 58.5391C263.918 58.5391 264.105 58.5312 264.27 58.5156C264.441 58.4922 264.586 58.4688 264.703 58.4453L264.715 60.9297C264.426 61.0234 264.113 61.0977 263.777 61.1523C263.441 61.207 263.07 61.2344 262.664 61.2344C261.922 61.2344 261.273 61.1133 260.719 60.8711C260.172 60.6211 259.75 60.2227 259.453 59.6758C259.156 59.1289 259.008 58.4102 259.008 57.5195V45.1914ZM273.328 58.1406V52.4922C273.328 52.0859 273.262 51.7383 273.129 51.4492C272.996 51.1523 272.789 50.9219 272.508 50.7578C272.234 50.5938 271.879 50.5117 271.441 50.5117C271.066 50.5117 270.742 50.5781 270.469 50.7109C270.195 50.8359 269.984 51.0195 269.836 51.2617C269.688 51.4961 269.613 51.7734 269.613 52.0938H266.238C266.238 51.5547 266.363 51.043 266.613 50.5586C266.863 50.0742 267.227 49.6484 267.703 49.2812C268.18 48.9062 268.746 48.6133 269.402 48.4023C270.066 48.1914 270.809 48.0859 271.629 48.0859C272.613 48.0859 273.488 48.25 274.254 48.5781C275.02 48.9062 275.621 49.3984 276.059 50.0547C276.504 50.7109 276.727 51.5312 276.727 52.5156V57.9414C276.727 58.6367 276.77 59.207 276.855 59.6523C276.941 60.0898 277.066 60.4727 277.23 60.8008V61H273.82C273.656 60.6562 273.531 60.2266 273.445 59.7109C273.367 59.1875 273.328 58.6641 273.328 58.1406ZM273.773 53.2773L273.797 55.1875H271.91C271.465 55.1875 271.078 55.2383 270.75 55.3398C270.422 55.4414 270.152 55.5859 269.941 55.7734C269.73 55.9531 269.574 56.1641 269.473 56.4062C269.379 56.6484 269.332 56.9141 269.332 57.2031C269.332 57.4922 269.398 57.7539 269.531 57.9883C269.664 58.2148 269.855 58.3945 270.105 58.5273C270.355 58.6523 270.648 58.7148 270.984 58.7148C271.492 58.7148 271.934 58.6133 272.309 58.4102C272.684 58.207 272.973 57.957 273.176 57.6602C273.387 57.3633 273.496 57.082 273.504 56.8164L274.395 58.2461C274.27 58.5664 274.098 58.8984 273.879 59.2422C273.668 59.5859 273.398 59.9102 273.07 60.2148C272.742 60.5117 272.348 60.7578 271.887 60.9531C271.426 61.1406 270.879 61.2344 270.246 61.2344C269.441 61.2344 268.711 61.0742 268.055 60.7539C267.406 60.4258 266.891 59.9766 266.508 59.4062C266.133 58.8281 265.945 58.1719 265.945 57.4375C265.945 56.7734 266.07 56.1836 266.32 55.668C266.57 55.1523 266.938 54.7188 267.422 54.3672C267.914 54.0078 268.527 53.7383 269.262 53.5586C269.996 53.3711 270.848 53.2773 271.816 53.2773H273.773ZM282.633 51.0273V61H279.258V48.3203H282.422L282.633 51.0273ZM282.141 54.2148H281.227C281.227 53.2773 281.348 52.4336 281.59 51.6836C281.832 50.9258 282.172 50.2812 282.609 49.75C283.047 49.2109 283.566 48.8008 284.168 48.5195C284.777 48.2305 285.457 48.0859 286.207 48.0859C286.801 48.0859 287.344 48.1719 287.836 48.3438C288.328 48.5156 288.75 48.7891 289.102 49.1641C289.461 49.5391 289.734 50.0352 289.922 50.6523C290.117 51.2695 290.215 52.0234 290.215 52.9141V61H286.816V52.9023C286.816 52.3398 286.738 51.9023 286.582 51.5898C286.426 51.2773 286.195 51.0586 285.891 50.9336C285.594 50.8008 285.227 50.7344 284.789 50.7344C284.336 50.7344 283.941 50.8242 283.605 51.0039C283.277 51.1836 283.004 51.4336 282.785 51.7539C282.574 52.0664 282.414 52.4336 282.305 52.8555C282.195 53.2773 282.141 53.7305 282.141 54.2148ZM298.02 58.5977C298.434 58.5977 298.801 58.5195 299.121 58.3633C299.441 58.1992 299.691 57.9727 299.871 57.6836C300.059 57.3867 300.156 57.0391 300.164 56.6406H303.34C303.332 57.5312 303.094 58.3242 302.625 59.0195C302.156 59.707 301.527 60.25 300.738 60.6484C299.949 61.0391 299.066 61.2344 298.09 61.2344C297.105 61.2344 296.246 61.0703 295.512 60.7422C294.785 60.4141 294.18 59.9609 293.695 59.3828C293.211 58.7969 292.848 58.1172 292.605 57.3438C292.363 56.5625 292.242 55.7266 292.242 54.8359V54.4961C292.242 53.5977 292.363 52.7617 292.605 51.9883C292.848 51.207 293.211 50.5273 293.695 49.9492C294.18 49.3633 294.785 48.9062 295.512 48.5781C296.238 48.25 297.09 48.0859 298.066 48.0859C299.105 48.0859 300.016 48.2852 300.797 48.6836C301.586 49.082 302.203 49.6523 302.648 50.3945C303.102 51.1289 303.332 52 303.34 53.0078H300.164C300.156 52.5859 300.066 52.2031 299.895 51.8594C299.73 51.5156 299.488 51.2422 299.168 51.0391C298.855 50.8281 298.469 50.7227 298.008 50.7227C297.516 50.7227 297.113 50.8281 296.801 51.0391C296.488 51.2422 296.246 51.5234 296.074 51.8828C295.902 52.2344 295.781 52.6367 295.711 53.0898C295.648 53.5352 295.617 54.0039 295.617 54.4961V54.8359C295.617 55.3281 295.648 55.8008 295.711 56.2539C295.773 56.707 295.891 57.1094 296.062 57.4609C296.242 57.8125 296.488 58.0898 296.801 58.293C297.113 58.4961 297.52 58.5977 298.02 58.5977ZM311.133 61.2344C310.148 61.2344 309.266 61.0781 308.484 60.7656C307.703 60.4453 307.039 60.0039 306.492 59.4414C305.953 58.8789 305.539 58.2266 305.25 57.4844C304.961 56.7344 304.816 55.9375 304.816 55.0938V54.625C304.816 53.6641 304.953 52.7852 305.227 51.9883C305.5 51.1914 305.891 50.5 306.398 49.9141C306.914 49.3281 307.539 48.8789 308.273 48.5664C309.008 48.2461 309.836 48.0859 310.758 48.0859C311.656 48.0859 312.453 48.2344 313.148 48.5312C313.844 48.8281 314.426 49.25 314.895 49.7969C315.371 50.3438 315.73 51 315.973 51.7656C316.215 52.5234 316.336 53.3672 316.336 54.2969V55.7031H306.258V53.4531H313.02V53.1953C313.02 52.7266 312.934 52.3086 312.762 51.9414C312.598 51.5664 312.348 51.2695 312.012 51.0508C311.676 50.832 311.246 50.7227 310.723 50.7227C310.277 50.7227 309.895 50.8203 309.574 51.0156C309.254 51.2109 308.992 51.4844 308.789 51.8359C308.594 52.1875 308.445 52.6016 308.344 53.0781C308.25 53.5469 308.203 54.0625 308.203 54.625V55.0938C308.203 55.6016 308.273 56.0703 308.414 56.5C308.562 56.9297 308.77 57.3008 309.035 57.6133C309.309 57.9258 309.637 58.168 310.02 58.3398C310.41 58.5117 310.852 58.5977 311.344 58.5977C311.953 58.5977 312.52 58.4805 313.043 58.2461C313.574 58.0039 314.031 57.6406 314.414 57.1562L316.055 58.9375C315.789 59.3203 315.426 59.6875 314.965 60.0391C314.512 60.3906 313.965 60.6797 313.324 60.9062C312.684 61.125 311.953 61.2344 311.133 61.2344ZM331.09 54.918H326.742V52.1758H331.09C331.762 52.1758 332.309 52.0664 332.73 51.8477C333.152 51.6211 333.461 51.3086 333.656 50.9102C333.852 50.5117 333.949 50.0625 333.949 49.5625C333.949 49.0547 333.852 48.582 333.656 48.1445C333.461 47.707 333.152 47.3555 332.73 47.0898C332.309 46.8242 331.762 46.6914 331.09 46.6914H327.961V61H324.445V43.9375H331.09C332.426 43.9375 333.57 44.1797 334.523 44.6641C335.484 45.1406 336.219 45.8008 336.727 46.6445C337.234 47.4883 337.488 48.4531 337.488 49.5391C337.488 50.6406 337.234 51.5938 336.727 52.3984C336.219 53.2031 335.484 53.8242 334.523 54.2617C333.57 54.6992 332.426 54.918 331.09 54.918ZM343.266 43V61H339.879V43H343.266ZM352.898 58.1406V52.4922C352.898 52.0859 352.832 51.7383 352.699 51.4492C352.566 51.1523 352.359 50.9219 352.078 50.7578C351.805 50.5938 351.449 50.5117 351.012 50.5117C350.637 50.5117 350.312 50.5781 350.039 50.7109C349.766 50.8359 349.555 51.0195 349.406 51.2617C349.258 51.4961 349.184 51.7734 349.184 52.0938H345.809C345.809 51.5547 345.934 51.043 346.184 50.5586C346.434 50.0742 346.797 49.6484 347.273 49.2812C347.75 48.9062 348.316 48.6133 348.973 48.4023C349.637 48.1914 350.379 48.0859 351.199 48.0859C352.184 48.0859 353.059 48.25 353.824 48.5781C354.59 48.9062 355.191 49.3984 355.629 50.0547C356.074 50.7109 356.297 51.5312 356.297 52.5156V57.9414C356.297 58.6367 356.34 59.207 356.426 59.6523C356.512 60.0898 356.637 60.4727 356.801 60.8008V61H353.391C353.227 60.6562 353.102 60.2266 353.016 59.7109C352.938 59.1875 352.898 58.6641 352.898 58.1406ZM353.344 53.2773L353.367 55.1875H351.48C351.035 55.1875 350.648 55.2383 350.32 55.3398C349.992 55.4414 349.723 55.5859 349.512 55.7734C349.301 55.9531 349.145 56.1641 349.043 56.4062C348.949 56.6484 348.902 56.9141 348.902 57.2031C348.902 57.4922 348.969 57.7539 349.102 57.9883C349.234 58.2148 349.426 58.3945 349.676 58.5273C349.926 58.6523 350.219 58.7148 350.555 58.7148C351.062 58.7148 351.504 58.6133 351.879 58.4102C352.254 58.207 352.543 57.957 352.746 57.6602C352.957 57.3633 353.066 57.082 353.074 56.8164L353.965 58.2461C353.84 58.5664 353.668 58.8984 353.449 59.2422C353.238 59.5859 352.969 59.9102 352.641 60.2148C352.312 60.5117 351.918 60.7578 351.457 60.9531C350.996 61.1406 350.449 61.2344 349.816 61.2344C349.012 61.2344 348.281 61.0742 347.625 60.7539C346.977 60.4258 346.461 59.9766 346.078 59.4062C345.703 58.8281 345.516 58.1719 345.516 57.4375C345.516 56.7734 345.641 56.1836 345.891 55.668C346.141 55.1523 346.508 54.7188 346.992 54.3672C347.484 54.0078 348.098 53.7383 348.832 53.5586C349.566 53.3711 350.418 53.2773 351.387 53.2773H353.344ZM365.109 48.3203V50.7109H357.727V48.3203H365.109ZM359.555 45.1914H362.93V57.1797C362.93 57.5469 362.977 57.8281 363.07 58.0234C363.172 58.2188 363.32 58.3555 363.516 58.4336C363.711 58.5039 363.957 58.5391 364.254 58.5391C364.465 58.5391 364.652 58.5312 364.816 58.5156C364.988 58.4922 365.133 58.4688 365.25 58.4453L365.262 60.9297C364.973 61.0234 364.66 61.0977 364.324 61.1523C363.988 61.207 363.617 61.2344 363.211 61.2344C362.469 61.2344 361.82 61.1133 361.266 60.8711C360.719 60.6211 360.297 60.2227 360 59.6758C359.703 59.1289 359.555 58.4102 359.555 57.5195V45.1914ZM371.332 61H367.934V47.1953C367.934 46.2344 368.121 45.4258 368.496 44.7695C368.879 44.1055 369.414 43.6055 370.102 43.2695C370.797 42.9258 371.621 42.7539 372.574 42.7539C372.887 42.7539 373.188 42.7773 373.477 42.8242C373.766 42.8633 374.047 42.9141 374.32 42.9766L374.285 45.5195C374.137 45.4805 373.98 45.4531 373.816 45.4375C373.652 45.4219 373.461 45.4141 373.242 45.4141C372.836 45.4141 372.488 45.4844 372.199 45.625C371.918 45.7578 371.703 45.957 371.555 46.2227C371.406 46.4883 371.332 46.8125 371.332 47.1953V61ZM373.863 48.3203V50.7109H366.047V48.3203H373.863ZM375.094 54.7891V54.543C375.094 53.6133 375.227 52.7578 375.492 51.9766C375.758 51.1875 376.145 50.5039 376.652 49.9258C377.16 49.3477 377.785 48.8984 378.527 48.5781C379.27 48.25 380.121 48.0859 381.082 48.0859C382.043 48.0859 382.898 48.25 383.648 48.5781C384.398 48.8984 385.027 49.3477 385.535 49.9258C386.051 50.5039 386.441 51.1875 386.707 51.9766C386.973 52.7578 387.105 53.6133 387.105 54.543V54.7891C387.105 55.7109 386.973 56.5664 386.707 57.3555C386.441 58.1367 386.051 58.8203 385.535 59.4062C385.027 59.9844 384.402 60.4336 383.66 60.7539C382.918 61.0742 382.066 61.2344 381.105 61.2344C380.145 61.2344 379.289 61.0742 378.539 60.7539C377.797 60.4336 377.168 59.9844 376.652 59.4062C376.145 58.8203 375.758 58.1367 375.492 57.3555C375.227 56.5664 375.094 55.7109 375.094 54.7891ZM378.469 54.543V54.7891C378.469 55.3203 378.516 55.8164 378.609 56.2773C378.703 56.7383 378.852 57.1445 379.055 57.4961C379.266 57.8398 379.539 58.1094 379.875 58.3047C380.211 58.5 380.621 58.5977 381.105 58.5977C381.574 58.5977 381.977 58.5 382.312 58.3047C382.648 58.1094 382.918 57.8398 383.121 57.4961C383.324 57.1445 383.473 56.7383 383.566 56.2773C383.668 55.8164 383.719 55.3203 383.719 54.7891V54.543C383.719 54.0273 383.668 53.543 383.566 53.0898C383.473 52.6289 383.32 52.2227 383.109 51.8711C382.906 51.5117 382.637 51.2305 382.301 51.0273C381.965 50.8242 381.559 50.7227 381.082 50.7227C380.605 50.7227 380.199 50.8242 379.863 51.0273C379.535 51.2305 379.266 51.5117 379.055 51.8711C378.852 52.2227 378.703 52.6289 378.609 53.0898C378.516 53.543 378.469 54.0273 378.469 54.543ZM392.555 51.0859V61H389.18V48.3203H392.355L392.555 51.0859ZM396.375 48.2383L396.316 51.3672C396.152 51.3438 395.953 51.3242 395.719 51.3086C395.492 51.2852 395.285 51.2734 395.098 51.2734C394.621 51.2734 394.207 51.3359 393.855 51.4609C393.512 51.5781 393.223 51.7539 392.988 51.9883C392.762 52.2227 392.59 52.5078 392.473 52.8438C392.363 53.1797 392.301 53.5625 392.285 53.9922L391.605 53.7812C391.605 52.9609 391.688 52.207 391.852 51.5195C392.016 50.8242 392.254 50.2188 392.566 49.7031C392.887 49.1875 393.277 48.7891 393.738 48.5078C394.199 48.2266 394.727 48.0859 395.32 48.0859C395.508 48.0859 395.699 48.1016 395.895 48.1328C396.09 48.1562 396.25 48.1914 396.375 48.2383ZM401.344 50.9453V61H397.957V48.3203H401.133L401.344 50.9453ZM400.875 54.2148H399.938C399.938 53.332 400.043 52.5195 400.254 51.7773C400.473 51.0273 400.789 50.3789 401.203 49.832C401.625 49.2773 402.145 48.8477 402.762 48.543C403.379 48.2383 404.094 48.0859 404.906 48.0859C405.469 48.0859 405.984 48.1719 406.453 48.3438C406.922 48.5078 407.324 48.7695 407.66 49.1289C408.004 49.4805 408.27 49.9414 408.457 50.5117C408.645 51.0742 408.738 51.75 408.738 52.5391V61H405.363V52.9141C405.363 52.3359 405.285 51.8906 405.129 51.5781C404.973 51.2656 404.75 51.0469 404.461 50.9219C404.18 50.7969 403.84 50.7344 403.441 50.7344C403.004 50.7344 402.621 50.8242 402.293 51.0039C401.973 51.1836 401.707 51.4336 401.496 51.7539C401.285 52.0664 401.129 52.4336 401.027 52.8555C400.926 53.2773 400.875 53.7305 400.875 54.2148ZM408.422 53.8281L407.215 53.9805C407.215 53.1523 407.316 52.3828 407.52 51.6719C407.73 50.9609 408.039 50.3359 408.445 49.7969C408.859 49.2578 409.371 48.8398 409.98 48.543C410.59 48.2383 411.293 48.0859 412.09 48.0859C412.699 48.0859 413.254 48.1758 413.754 48.3555C414.254 48.5273 414.68 48.8047 415.031 49.1875C415.391 49.5625 415.664 50.0547 415.852 50.6641C416.047 51.2734 416.145 52.0195 416.145 52.9023V61H412.758V52.9023C412.758 52.3164 412.68 51.8711 412.523 51.5664C412.375 51.2539 412.156 51.0391 411.867 50.9219C411.586 50.7969 411.25 50.7344 410.859 50.7344C410.453 50.7344 410.098 50.8164 409.793 50.9805C409.488 51.1367 409.234 51.3555 409.031 51.6367C408.828 51.918 408.676 52.2461 408.574 52.6211C408.473 52.9883 408.422 53.3906 408.422 53.8281Z" fill="#888888"/>
<path d="M106.688 119H99.1172L99.1641 112.672H106.688C108.25 112.672 109.57 112.297 110.648 111.547C111.742 110.797 112.57 109.68 113.133 108.195C113.711 106.695 114 104.852 114 102.664V101.188C114 99.5469 113.836 98.1094 113.508 96.875C113.195 95.625 112.727 94.5859 112.102 93.7578C111.477 92.9141 110.695 92.2812 109.758 91.8594C108.836 91.4375 107.773 91.2266 106.57 91.2266H98.9766V84.875H106.57C108.883 84.875 111 85.2734 112.922 86.0703C114.859 86.8516 116.531 87.9766 117.938 89.4453C119.359 90.8984 120.453 92.625 121.219 94.625C122 96.6094 122.391 98.8125 122.391 101.234V102.664C122.391 105.07 122 107.273 121.219 109.273C120.453 111.273 119.367 113 117.961 114.453C116.555 115.906 114.891 117.031 112.969 117.828C111.062 118.609 108.969 119 106.688 119ZM103.828 84.875V119H95.6016V84.875H103.828ZM139.477 112.625V102.172C139.477 101.453 139.375 100.836 139.172 100.32C138.969 99.8047 138.648 99.4062 138.211 99.125C137.773 98.8281 137.188 98.6797 136.453 98.6797C135.859 98.6797 135.352 98.7812 134.93 98.9844C134.508 99.1875 134.188 99.4922 133.969 99.8984C133.75 100.305 133.641 100.82 133.641 101.445H125.742C125.742 100.273 126 99.1875 126.516 98.1875C127.047 97.1719 127.797 96.2891 128.766 95.5391C129.75 94.7891 130.922 94.2109 132.281 93.8047C133.656 93.3828 135.188 93.1719 136.875 93.1719C138.891 93.1719 140.688 93.5078 142.266 94.1797C143.859 94.8516 145.117 95.8594 146.039 97.2031C146.961 98.5312 147.422 100.203 147.422 102.219V112.602C147.422 114.258 147.516 115.516 147.703 116.375C147.891 117.219 148.156 117.961 148.5 118.602V119H140.578C140.203 118.219 139.922 117.266 139.734 116.141C139.562 115 139.477 113.828 139.477 112.625ZM140.438 103.508L140.484 107.727H136.992C136.258 107.727 135.633 107.828 135.117 108.031C134.617 108.234 134.211 108.516 133.898 108.875C133.602 109.219 133.383 109.609 133.242 110.047C133.117 110.484 133.055 110.945 133.055 111.43C133.055 111.898 133.164 112.32 133.383 112.695C133.617 113.055 133.93 113.336 134.32 113.539C134.711 113.742 135.148 113.844 135.633 113.844C136.508 113.844 137.25 113.68 137.859 113.352C138.484 113.008 138.961 112.594 139.289 112.109C139.617 111.625 139.781 111.172 139.781 110.75L141.516 113.984C141.203 114.609 140.844 115.242 140.438 115.883C140.047 116.523 139.555 117.117 138.961 117.664C138.383 118.195 137.672 118.633 136.828 118.977C135.984 119.305 134.961 119.469 133.758 119.469C132.195 119.469 130.758 119.148 129.445 118.508C128.148 117.867 127.109 116.977 126.328 115.836C125.547 114.68 125.156 113.352 125.156 111.852C125.156 110.539 125.391 109.367 125.859 108.336C126.344 107.305 127.07 106.43 128.039 105.711C129.008 104.992 130.242 104.445 131.742 104.07C133.242 103.695 135.008 103.508 137.039 103.508H140.438ZM165.164 93.6406V99.125H149.883V93.6406H165.164ZM153.094 87.3359H160.992V110.727C160.992 111.398 161.07 111.922 161.227 112.297C161.383 112.656 161.648 112.914 162.023 113.07C162.414 113.211 162.93 113.281 163.57 113.281C164.023 113.281 164.398 113.273 164.695 113.258C164.992 113.227 165.273 113.188 165.539 113.141V118.789C164.867 119.008 164.164 119.172 163.43 119.281C162.695 119.406 161.914 119.469 161.086 119.469C159.398 119.469 157.953 119.203 156.75 118.672C155.562 118.141 154.656 117.305 154.031 116.164C153.406 115.023 153.094 113.539 153.094 111.711V87.3359ZM181.477 112.625V102.172C181.477 101.453 181.375 100.836 181.172 100.32C180.969 99.8047 180.648 99.4062 180.211 99.125C179.773 98.8281 179.188 98.6797 178.453 98.6797C177.859 98.6797 177.352 98.7812 176.93 98.9844C176.508 99.1875 176.188 99.4922 175.969 99.8984C175.75 100.305 175.641 100.82 175.641 101.445H167.742C167.742 100.273 168 99.1875 168.516 98.1875C169.047 97.1719 169.797 96.2891 170.766 95.5391C171.75 94.7891 172.922 94.2109 174.281 93.8047C175.656 93.3828 177.188 93.1719 178.875 93.1719C180.891 93.1719 182.688 93.5078 184.266 94.1797C185.859 94.8516 187.117 95.8594 188.039 97.2031C188.961 98.5312 189.422 100.203 189.422 102.219V112.602C189.422 114.258 189.516 115.516 189.703 116.375C189.891 117.219 190.156 117.961 190.5 118.602V119H182.578C182.203 118.219 181.922 117.266 181.734 116.141C181.562 115 181.477 113.828 181.477 112.625ZM182.438 103.508L182.484 107.727H178.992C178.258 107.727 177.633 107.828 177.117 108.031C176.617 108.234 176.211 108.516 175.898 108.875C175.602 109.219 175.383 109.609 175.242 110.047C175.117 110.484 175.055 110.945 175.055 111.43C175.055 111.898 175.164 112.32 175.383 112.695C175.617 113.055 175.93 113.336 176.32 113.539C176.711 113.742 177.148 113.844 177.633 113.844C178.508 113.844 179.25 113.68 179.859 113.352C180.484 113.008 180.961 112.594 181.289 112.109C181.617 111.625 181.781 111.172 181.781 110.75L183.516 113.984C183.203 114.609 182.844 115.242 182.438 115.883C182.047 116.523 181.555 117.117 180.961 117.664C180.383 118.195 179.672 118.633 178.828 118.977C177.984 119.305 176.961 119.469 175.758 119.469C174.195 119.469 172.758 119.148 171.445 118.508C170.148 117.867 169.109 116.977 168.328 115.836C167.547 114.68 167.156 113.352 167.156 111.852C167.156 110.539 167.391 109.367 167.859 108.336C168.344 107.305 169.07 106.43 170.039 105.711C171.008 104.992 172.242 104.445 173.742 104.07C175.242 103.695 177.008 103.508 179.039 103.508H182.438ZM193.875 83H201.773V112.766L200.953 119H193.875V83ZM217.336 106.039V106.531C217.336 108.453 217.141 110.203 216.75 111.781C216.359 113.359 215.758 114.727 214.945 115.883C214.133 117.023 213.109 117.906 211.875 118.531C210.641 119.156 209.18 119.469 207.492 119.469C205.961 119.469 204.648 119.141 203.555 118.484C202.461 117.812 201.547 116.891 200.812 115.719C200.078 114.531 199.484 113.164 199.031 111.617C198.578 110.055 198.219 108.383 197.953 106.602V106.016C198.219 104.25 198.578 102.594 199.031 101.047C199.484 99.4844 200.078 98.1172 200.812 96.9453C201.547 95.7578 202.453 94.8359 203.531 94.1797C204.625 93.5078 205.93 93.1719 207.445 93.1719C209.148 93.1719 210.617 93.4922 211.852 94.1328C213.102 94.7734 214.133 95.6719 214.945 96.8281C215.758 97.9844 216.359 99.3438 216.75 100.906C217.141 102.469 217.336 104.18 217.336 106.039ZM209.438 106.531V106.039C209.438 105.117 209.383 104.25 209.273 103.438C209.164 102.625 208.969 101.906 208.688 101.281C208.406 100.656 208.008 100.164 207.492 99.8047C206.977 99.4453 206.305 99.2656 205.477 99.2656C204.633 99.2656 203.922 99.4062 203.344 99.6875C202.781 99.9688 202.328 100.375 201.984 100.906C201.656 101.422 201.422 102.062 201.281 102.828C201.141 103.578 201.078 104.43 201.094 105.383V107.234C201.062 108.531 201.18 109.641 201.445 110.562C201.711 111.484 202.172 112.188 202.828 112.672C203.484 113.156 204.383 113.398 205.523 113.398C206.367 113.398 207.047 113.234 207.562 112.906C208.094 112.578 208.492 112.109 208.758 111.5C209.023 110.891 209.203 110.164 209.297 109.32C209.391 108.477 209.438 107.547 209.438 106.531ZM234.023 112.625V102.172C234.023 101.453 233.922 100.836 233.719 100.32C233.516 99.8047 233.195 99.4062 232.758 99.125C232.32 98.8281 231.734 98.6797 231 98.6797C230.406 98.6797 229.898 98.7812 229.477 98.9844C229.055 99.1875 228.734 99.4922 228.516 99.8984C228.297 100.305 228.188 100.82 228.188 101.445H220.289C220.289 100.273 220.547 99.1875 221.062 98.1875C221.594 97.1719 222.344 96.2891 223.312 95.5391C224.297 94.7891 225.469 94.2109 226.828 93.8047C228.203 93.3828 229.734 93.1719 231.422 93.1719C233.438 93.1719 235.234 93.5078 236.812 94.1797C238.406 94.8516 239.664 95.8594 240.586 97.2031C241.508 98.5312 241.969 100.203 241.969 102.219V112.602C241.969 114.258 242.062 115.516 242.25 116.375C242.438 117.219 242.703 117.961 243.047 118.602V119H235.125C234.75 118.219 234.469 117.266 234.281 116.141C234.109 115 234.023 113.828 234.023 112.625ZM234.984 103.508L235.031 107.727H231.539C230.805 107.727 230.18 107.828 229.664 108.031C229.164 108.234 228.758 108.516 228.445 108.875C228.148 109.219 227.93 109.609 227.789 110.047C227.664 110.484 227.602 110.945 227.602 111.43C227.602 111.898 227.711 112.32 227.93 112.695C228.164 113.055 228.477 113.336 228.867 113.539C229.258 113.742 229.695 113.844 230.18 113.844C231.055 113.844 231.797 113.68 232.406 113.352C233.031 113.008 233.508 112.594 233.836 112.109C234.164 111.625 234.328 111.172 234.328 110.75L236.062 113.984C235.75 114.609 235.391 115.242 234.984 115.883C234.594 116.523 234.102 117.117 233.508 117.664C232.93 118.195 232.219 118.633 231.375 118.977C230.531 119.305 229.508 119.469 228.305 119.469C226.742 119.469 225.305 119.148 223.992 118.508C222.695 117.867 221.656 116.977 220.875 115.836C220.094 114.68 219.703 113.352 219.703 111.852C219.703 110.539 219.938 109.367 220.406 108.336C220.891 107.305 221.617 106.43 222.586 105.711C223.555 104.992 224.789 104.445 226.289 104.07C227.789 103.695 229.555 103.508 231.586 103.508H234.984ZM259.641 111.875C259.641 111.438 259.492 111.062 259.195 110.75C258.914 110.422 258.414 110.125 257.695 109.859C256.977 109.578 255.969 109.297 254.672 109.016C253.438 108.75 252.273 108.398 251.18 107.961C250.102 107.523 249.156 106.992 248.344 106.367C247.531 105.742 246.891 105 246.422 104.141C245.969 103.281 245.742 102.297 245.742 101.188C245.742 100.109 245.969 99.0938 246.422 98.1406C246.891 97.1719 247.57 96.3203 248.461 95.5859C249.367 94.8359 250.469 94.25 251.766 93.8281C253.062 93.3906 254.539 93.1719 256.195 93.1719C258.477 93.1719 260.445 93.5234 262.102 94.2266C263.758 94.9141 265.031 95.8828 265.922 97.1328C266.828 98.3672 267.281 99.7969 267.281 101.422H259.383C259.383 100.781 259.273 100.234 259.055 99.7812C258.852 99.3281 258.516 98.9844 258.047 98.75C257.578 98.5 256.953 98.375 256.172 98.375C255.625 98.375 255.125 98.4766 254.672 98.6797C254.234 98.8828 253.883 99.1641 253.617 99.5234C253.352 99.8828 253.219 100.305 253.219 100.789C253.219 101.133 253.297 101.445 253.453 101.727C253.625 101.992 253.883 102.242 254.227 102.477C254.57 102.695 255.008 102.898 255.539 103.086C256.07 103.258 256.711 103.414 257.461 103.555C259.164 103.867 260.758 104.312 262.242 104.891C263.727 105.469 264.93 106.289 265.852 107.352C266.789 108.414 267.258 109.844 267.258 111.641C267.258 112.766 267 113.805 266.484 114.758C265.969 115.695 265.227 116.523 264.258 117.242C263.289 117.945 262.125 118.492 260.766 118.883C259.406 119.273 257.875 119.469 256.172 119.469C253.75 119.469 251.703 119.039 250.031 118.18C248.359 117.305 247.094 116.211 246.234 114.898C245.391 113.57 244.969 112.227 244.969 110.867H252.328C252.359 111.648 252.547 112.289 252.891 112.789C253.25 113.289 253.727 113.656 254.32 113.891C254.914 114.125 255.602 114.242 256.383 114.242C257.102 114.242 257.695 114.141 258.164 113.938C258.648 113.734 259.016 113.461 259.266 113.117C259.516 112.758 259.641 112.344 259.641 111.875ZM283.242 119.469C281.18 119.469 279.336 119.148 277.711 118.508C276.086 117.852 274.711 116.953 273.586 115.812C272.477 114.672 271.625 113.359 271.031 111.875C270.453 110.391 270.164 108.82 270.164 107.164V106.273C270.164 104.414 270.422 102.695 270.938 101.117C271.453 99.5234 272.219 98.1328 273.234 96.9453C274.25 95.7578 275.523 94.8359 277.055 94.1797C278.586 93.5078 280.367 93.1719 282.398 93.1719C284.195 93.1719 285.805 93.4609 287.227 94.0391C288.648 94.6172 289.852 95.4453 290.836 96.5234C291.836 97.6016 292.594 98.9062 293.109 100.438C293.641 101.969 293.906 103.688 293.906 105.594V108.805H273.188V103.859H286.195V103.25C286.211 102.406 286.062 101.688 285.75 101.094C285.453 100.5 285.016 100.047 284.438 99.7344C283.859 99.4219 283.156 99.2656 282.328 99.2656C281.469 99.2656 280.758 99.4531 280.195 99.8281C279.648 100.203 279.219 100.719 278.906 101.375C278.609 102.016 278.398 102.758 278.273 103.602C278.148 104.445 278.086 105.336 278.086 106.273V107.164C278.086 108.102 278.211 108.953 278.461 109.719C278.727 110.484 279.102 111.141 279.586 111.688C280.086 112.219 280.68 112.633 281.367 112.93C282.07 113.227 282.867 113.375 283.758 113.375C284.836 113.375 285.898 113.172 286.945 112.766C287.992 112.359 288.891 111.688 289.641 110.75L293.227 115.016C292.711 115.75 291.977 116.461 291.023 117.148C290.086 117.836 288.961 118.398 287.648 118.836C286.336 119.258 284.867 119.469 283.242 119.469ZM320.531 119H312.961L313.008 112.672H320.531C322.094 112.672 323.414 112.297 324.492 111.547C325.586 110.797 326.414 109.68 326.977 108.195C327.555 106.695 327.844 104.852 327.844 102.664V101.188C327.844 99.5469 327.68 98.1094 327.352 96.875C327.039 95.625 326.57 94.5859 325.945 93.7578C325.32 92.9141 324.539 92.2812 323.602 91.8594C322.68 91.4375 321.617 91.2266 320.414 91.2266H312.82V84.875H320.414C322.727 84.875 324.844 85.2734 326.766 86.0703C328.703 86.8516 330.375 87.9766 331.781 89.4453C333.203 90.8984 334.297 92.625 335.062 94.625C335.844 96.6094 336.234 98.8125 336.234 101.234V102.664C336.234 105.07 335.844 107.273 335.062 109.273C334.297 111.273 333.211 113 331.805 114.453C330.398 115.906 328.734 117.031 326.812 117.828C324.906 118.609 322.812 119 320.531 119ZM317.672 84.875V119H309.445V84.875H317.672ZM352.43 119.469C350.367 119.469 348.523 119.148 346.898 118.508C345.273 117.852 343.898 116.953 342.773 115.812C341.664 114.672 340.812 113.359 340.219 111.875C339.641 110.391 339.352 108.82 339.352 107.164V106.273C339.352 104.414 339.609 102.695 340.125 101.117C340.641 99.5234 341.406 98.1328 342.422 96.9453C343.438 95.7578 344.711 94.8359 346.242 94.1797C347.773 93.5078 349.555 93.1719 351.586 93.1719C353.383 93.1719 354.992 93.4609 356.414 94.0391C357.836 94.6172 359.039 95.4453 360.023 96.5234C361.023 97.6016 361.781 98.9062 362.297 100.438C362.828 101.969 363.094 103.688 363.094 105.594V108.805H342.375V103.859H355.383V103.25C355.398 102.406 355.25 101.688 354.938 101.094C354.641 100.5 354.203 100.047 353.625 99.7344C353.047 99.4219 352.344 99.2656 351.516 99.2656C350.656 99.2656 349.945 99.4531 349.383 99.8281C348.836 100.203 348.406 100.719 348.094 101.375C347.797 102.016 347.586 102.758 347.461 103.602C347.336 104.445 347.273 105.336 347.273 106.273V107.164C347.273 108.102 347.398 108.953 347.648 109.719C347.914 110.484 348.289 111.141 348.773 111.688C349.273 112.219 349.867 112.633 350.555 112.93C351.258 113.227 352.055 113.375 352.945 113.375C354.023 113.375 355.086 113.172 356.133 112.766C357.18 112.359 358.078 111.688 358.828 110.75L362.414 115.016C361.898 115.75 361.164 116.461 360.211 117.148C359.273 117.836 358.148 118.398 356.836 118.836C355.523 119.258 354.055 119.469 352.43 119.469ZM379.594 111.875C379.594 111.438 379.445 111.062 379.148 110.75C378.867 110.422 378.367 110.125 377.648 109.859C376.93 109.578 375.922 109.297 374.625 109.016C373.391 108.75 372.227 108.398 371.133 107.961C370.055 107.523 369.109 106.992 368.297 106.367C367.484 105.742 366.844 105 366.375 104.141C365.922 103.281 365.695 102.297 365.695 101.188C365.695 100.109 365.922 99.0938 366.375 98.1406C366.844 97.1719 367.523 96.3203 368.414 95.5859C369.32 94.8359 370.422 94.25 371.719 93.8281C373.016 93.3906 374.492 93.1719 376.148 93.1719C378.43 93.1719 380.398 93.5234 382.055 94.2266C383.711 94.9141 384.984 95.8828 385.875 97.1328C386.781 98.3672 387.234 99.7969 387.234 101.422H379.336C379.336 100.781 379.227 100.234 379.008 99.7812C378.805 99.3281 378.469 98.9844 378 98.75C377.531 98.5 376.906 98.375 376.125 98.375C375.578 98.375 375.078 98.4766 374.625 98.6797C374.188 98.8828 373.836 99.1641 373.57 99.5234C373.305 99.8828 373.172 100.305 373.172 100.789C373.172 101.133 373.25 101.445 373.406 101.727C373.578 101.992 373.836 102.242 374.18 102.477C374.523 102.695 374.961 102.898 375.492 103.086C376.023 103.258 376.664 103.414 377.414 103.555C379.117 103.867 380.711 104.312 382.195 104.891C383.68 105.469 384.883 106.289 385.805 107.352C386.742 108.414 387.211 109.844 387.211 111.641C387.211 112.766 386.953 113.805 386.438 114.758C385.922 115.695 385.18 116.523 384.211 117.242C383.242 117.945 382.078 118.492 380.719 118.883C379.359 119.273 377.828 119.469 376.125 119.469C373.703 119.469 371.656 119.039 369.984 118.18C368.312 117.305 367.047 116.211 366.188 114.898C365.344 113.57 364.922 112.227 364.922 110.867H372.281C372.312 111.648 372.5 112.289 372.844 112.789C373.203 113.289 373.68 113.656 374.273 113.891C374.867 114.125 375.555 114.242 376.336 114.242C377.055 114.242 377.648 114.141 378.117 113.938C378.602 113.734 378.969 113.461 379.219 113.117C379.469 112.758 379.594 112.344 379.594 111.875ZM399.258 93.6406V119H391.336V93.6406H399.258ZM390.867 87.1016C390.867 85.9766 391.273 85.0547 392.086 84.3359C392.898 83.6172 393.953 83.2578 395.25 83.2578C396.547 83.2578 397.602 83.6172 398.414 84.3359C399.227 85.0547 399.633 85.9766 399.633 87.1016C399.633 88.2266 399.227 89.1484 398.414 89.8672C397.602 90.5859 396.547 90.9453 395.25 90.9453C393.953 90.9453 392.898 90.5859 392.086 89.8672C391.273 89.1484 390.867 88.2266 390.867 87.1016ZM420.07 93.6406H427.242V118.016C427.242 120.359 426.703 122.344 425.625 123.969C424.547 125.609 423.039 126.852 421.102 127.695C419.18 128.555 416.93 128.984 414.352 128.984C413.211 128.984 412.047 128.836 410.859 128.539C409.672 128.258 408.562 127.836 407.531 127.273C406.5 126.711 405.633 126.016 404.93 125.188L408.234 120.547C408.875 121.266 409.68 121.875 410.648 122.375C411.617 122.891 412.758 123.148 414.07 123.148C415.211 123.148 416.164 122.945 416.93 122.539C417.711 122.133 418.305 121.539 418.711 120.758C419.117 119.992 419.32 119.062 419.32 117.969V99.6406L420.07 93.6406ZM403.219 106.625V106.133C403.219 104.211 403.453 102.461 403.922 100.883C404.406 99.2891 405.094 97.9219 405.984 96.7812C406.891 95.625 407.984 94.7344 409.266 94.1094C410.547 93.4844 411.992 93.1719 413.602 93.1719C415.336 93.1719 416.758 93.5078 417.867 94.1797C418.992 94.8359 419.891 95.7578 420.562 96.9453C421.25 98.1328 421.781 99.5234 422.156 101.117C422.547 102.695 422.875 104.398 423.141 106.227V106.812C422.875 108.531 422.508 110.156 422.039 111.688C421.586 113.203 420.992 114.547 420.258 115.719C419.523 116.891 418.602 117.812 417.492 118.484C416.398 119.141 415.086 119.469 413.555 119.469C411.961 119.469 410.523 119.148 409.242 118.508C407.977 117.867 406.891 116.969 405.984 115.812C405.094 114.656 404.406 113.297 403.922 111.734C403.453 110.172 403.219 108.469 403.219 106.625ZM411.117 106.133V106.625C411.117 107.578 411.203 108.461 411.375 109.273C411.562 110.086 411.844 110.805 412.219 111.43C412.594 112.039 413.055 112.516 413.602 112.859C414.164 113.203 414.82 113.375 415.57 113.375C416.711 113.375 417.633 113.133 418.336 112.648C419.039 112.164 419.547 111.477 419.859 110.586C420.172 109.695 420.305 108.648 420.258 107.445V105.594C420.289 104.562 420.219 103.656 420.047 102.875C419.875 102.078 419.602 101.414 419.227 100.883C418.867 100.352 418.383 99.9531 417.773 99.6875C417.18 99.4062 416.461 99.2656 415.617 99.2656C414.883 99.2656 414.234 99.4375 413.672 99.7812C413.109 100.125 412.641 100.609 412.266 101.234C411.891 101.844 411.602 102.57 411.398 103.414C411.211 104.242 411.117 105.148 411.117 106.133ZM439.547 99.0547V119H431.648V93.6406H439.055L439.547 99.0547ZM438.609 105.453L436.758 105.5C436.758 103.562 436.992 101.836 437.461 100.32C437.93 98.7891 438.594 97.4922 439.453 96.4297C440.312 95.3672 441.336 94.5625 442.523 94.0156C443.727 93.4531 445.062 93.1719 446.531 93.1719C447.703 93.1719 448.773 93.3438 449.742 93.6875C450.727 94.0312 451.57 94.5859 452.273 95.3516C452.992 96.1172 453.539 97.1328 453.914 98.3984C454.305 99.6484 454.5 101.195 454.5 103.039V119H446.555V103.016C446.555 102 446.414 101.227 446.133 100.695C445.852 100.148 445.445 99.7734 444.914 99.5703C444.383 99.3672 443.734 99.2656 442.969 99.2656C442.156 99.2656 441.469 99.4219 440.906 99.7344C440.344 100.047 439.891 100.484 439.547 101.047C439.219 101.594 438.977 102.242 438.82 102.992C438.68 103.742 438.609 104.562 438.609 105.453Z" fill="black"/>
<path d="M1134 0H1348C1356.28 0 1363 6.71573 1363 15V148C1363 156.284 1356.28 163 1348 163H1134V0Z" fill="#5584B0"/>
<path d="M1217.58 64.1667C1217.58 66.0281 1218.51 67.7419 1220.09 69.2434C1221.67 70.7429 1223.94 72.0619 1226.71 73.1553C1232.26 75.343 1239.93 76.6667 1248.5 76.6667C1257.07 76.6667 1264.74 75.343 1270.29 73.1553C1273.06 72.0619 1275.33 70.7429 1276.91 69.2434C1278.49 67.7419 1279.42 66.0281 1279.42 64.1667C1279.42 62.3052 1278.49 60.5914 1276.91 59.0899C1275.33 57.5904 1273.06 56.2714 1270.29 55.178C1264.74 52.9903 1257.07 51.6667 1248.5 51.6667C1239.93 51.6667 1232.26 52.9903 1226.71 55.178C1223.94 56.2714 1221.67 57.5904 1220.09 59.0899C1218.51 60.5914 1217.58 62.3052 1217.58 64.1667ZM1221.62 64.1667C1221.62 63.0283 1222.37 61.8878 1223.88 60.7921C1225.37 59.7041 1227.52 58.7293 1230.11 57.9144C1235.28 56.2864 1242.07 55.3333 1248.5 55.3333C1254.93 55.3333 1261.72 56.2864 1266.89 57.9144C1269.48 58.7293 1271.63 59.7041 1273.12 60.7921C1274.63 61.8878 1275.37 63.0283 1275.37 64.1667C1275.37 65.305 1274.63 66.4455 1273.12 67.5412C1271.63 68.6292 1269.48 69.604 1266.89 70.4189C1261.72 72.0469 1254.93 73 1248.5 73C1242.07 73 1235.28 72.0469 1230.11 70.4189C1227.52 69.604 1225.37 68.6292 1223.88 67.5412C1222.37 66.4455 1221.62 65.305 1221.62 64.1667Z" fill="white" stroke="white"/>
<path d="M1217.58 74.8333C1217.58 76.6948 1218.51 78.4086 1220.09 79.9101C1221.67 81.4096 1223.94 82.7286 1226.71 83.822C1232.26 86.0097 1239.93 87.3333 1248.5 87.3333C1257.07 87.3333 1264.74 86.0097 1270.29 83.822C1273.06 82.7286 1275.33 81.4096 1276.91 79.9101C1278.49 78.4086 1279.42 76.6948 1279.42 74.8333V64.1667C1279.42 63.6576 1279.19 63.1851 1278.8 62.8479C1278.42 62.5126 1277.91 62.3333 1277.4 62.3333C1276.88 62.3333 1276.37 62.5126 1275.99 62.8479C1275.61 63.1851 1275.37 63.6576 1275.37 64.1667V74.8333C1275.37 75.9717 1274.63 77.1122 1273.12 78.2079C1271.63 79.2959 1269.48 80.2707 1266.89 81.0856C1261.72 82.7136 1254.93 83.6667 1248.5 83.6667C1242.07 83.6667 1235.28 82.7136 1230.11 81.0856C1227.52 80.2707 1225.37 79.2959 1223.88 78.2079C1222.37 77.1122 1221.62 75.9717 1221.62 74.8333V64.1667C1221.62 63.6576 1221.39 63.1851 1221.01 62.8479C1220.63 62.5126 1220.12 62.3333 1219.6 62.3333C1219.09 62.3333 1218.58 62.5126 1218.2 62.8479C1217.81 63.1851 1217.58 63.6576 1217.58 64.1667V74.8333Z" fill="white" stroke="white"/>
<path d="M1217.58 86.8333C1217.58 88.6948 1218.51 90.4086 1220.09 91.9101C1221.67 93.4095 1223.94 94.7286 1226.71 95.8219C1232.26 98.0097 1239.93 99.3333 1248.5 99.3333C1257.07 99.3333 1264.74 98.0097 1270.29 95.8219C1273.06 94.7286 1275.33 93.4095 1276.91 91.9101C1278.49 90.4086 1279.42 88.6948 1279.42 86.8333V74.8333C1279.42 74.3243 1279.19 73.8517 1278.8 73.5146C1278.42 73.1792 1277.91 73 1277.4 73C1276.88 73 1276.37 73.1792 1275.99 73.5146C1275.61 73.8517 1275.37 74.3243 1275.37 74.8333V86.8333C1275.37 87.9717 1274.63 89.1122 1273.12 90.2079C1271.63 91.2958 1269.48 92.2707 1266.89 93.0856C1261.72 94.7136 1254.93 95.6667 1248.5 95.6667C1242.07 95.6667 1235.28 94.7136 1230.11 93.0856C1227.52 92.2707 1225.37 91.2958 1223.88 90.2079C1222.37 89.1122 1221.62 87.9717 1221.62 86.8333V74.8333C1221.62 74.3243 1221.39 73.8517 1221.01 73.5146C1220.63 73.1792 1220.12 73 1219.6 73C1219.09 73 1218.58 73.1792 1218.2 73.5146C1217.81 73.8517 1217.58 74.3243 1217.58 74.8333V86.8333Z" fill="white" stroke="white"/>
<path d="M1217.58 98.8333C1217.58 100.695 1218.51 102.409 1220.09 103.91C1221.67 105.41 1223.94 106.729 1226.71 107.822C1232.26 110.01 1239.93 111.333 1248.5 111.333C1257.07 111.333 1264.74 110.01 1270.29 107.822C1273.06 106.729 1275.33 105.41 1276.91 103.91C1278.49 102.409 1279.42 100.695 1279.42 98.8333V86.8333C1279.42 86.3243 1279.19 85.8517 1278.8 85.5146C1278.42 85.1792 1277.91 85 1277.4 85C1276.88 85 1276.37 85.1792 1275.99 85.5146C1275.61 85.8517 1275.37 86.3243 1275.37 86.8333V98.8333C1275.37 99.9717 1274.63 101.112 1273.12 102.208C1271.63 103.296 1269.48 104.271 1266.89 105.086C1261.72 106.714 1254.93 107.667 1248.5 107.667C1242.07 107.667 1235.28 106.714 1230.11 105.086C1227.52 104.271 1225.37 103.296 1223.88 102.208C1222.37 101.112 1221.62 99.9717 1221.62 98.8333V86.8333C1221.62 86.3243 1221.39 85.8517 1221.01 85.5146C1220.63 85.1792 1220.12 85 1219.6 85C1219.09 85 1218.58 85.1792 1218.2 85.5146C1217.81 85.8517 1217.58 86.3243 1217.58 86.8333V98.8333Z" fill="white" stroke="white"/>
</svg>
