<svg width="1363" height="163" viewBox="0 0 1363 163" fill="none" xmlns="http://www.w3.org/2000/svg">
<path d="M0 15C0 6.71573 6.71573 0 15 0H37V163H15C6.71573 163 0 156.284 0 148V15Z" fill="#424242"/>
<rect width="1097" height="163" transform="translate(37)" fill="#F0F0F0"/>
<path d="M101.906 53.9219L94.3945 51.2383V48.0859L104.602 52.375V54.6367L101.906 53.9219ZM94.3945 56.1719L101.918 53.4297L104.602 52.7852V55.0352L94.3945 59.3242V56.1719ZM121.781 56.5352C121.781 56.2305 121.734 55.957 121.641 55.7148C121.555 55.4648 121.391 55.2383 121.148 55.0352C120.906 54.8242 120.566 54.6172 120.129 54.4141C119.691 54.2109 119.125 54 118.43 53.7812C117.656 53.5312 116.922 53.25 116.227 52.9375C115.539 52.625 114.93 52.2617 114.398 51.8477C113.875 51.4258 113.461 50.9375 113.156 50.3828C112.859 49.8281 112.711 49.1836 112.711 48.4492C112.711 47.7383 112.867 47.0938 113.18 46.5156C113.492 45.9297 113.93 45.4297 114.492 45.0156C115.055 44.5938 115.719 44.2695 116.484 44.043C117.258 43.8164 118.105 43.7031 119.027 43.7031C120.285 43.7031 121.383 43.9297 122.32 44.3828C123.258 44.8359 123.984 45.457 124.5 46.2461C125.023 47.0352 125.285 47.9375 125.285 48.9531H121.793C121.793 48.4531 121.688 48.0156 121.477 47.6406C121.273 47.2578 120.961 46.957 120.539 46.7383C120.125 46.5195 119.602 46.4102 118.969 46.4102C118.359 46.4102 117.852 46.5039 117.445 46.6914C117.039 46.8711 116.734 47.1172 116.531 47.4297C116.328 47.7344 116.227 48.0781 116.227 48.4609C116.227 48.75 116.297 49.0117 116.438 49.2461C116.586 49.4805 116.805 49.6992 117.094 49.9023C117.383 50.1055 117.738 50.2969 118.16 50.4766C118.582 50.6562 119.07 50.832 119.625 51.0039C120.555 51.2852 121.371 51.6016 122.074 51.9531C122.785 52.3047 123.379 52.6992 123.855 53.1367C124.332 53.5742 124.691 54.0703 124.934 54.625C125.176 55.1797 125.297 55.8086 125.297 56.5117C125.297 57.2539 125.152 57.918 124.863 58.5039C124.574 59.0898 124.156 59.5859 123.609 59.9922C123.062 60.3984 122.41 60.707 121.652 60.918C120.895 61.1289 120.047 61.2344 119.109 61.2344C118.266 61.2344 117.434 61.125 116.613 60.9062C115.793 60.6797 115.047 60.3398 114.375 59.8867C113.711 59.4336 113.18 58.8555 112.781 58.1523C112.383 57.4492 112.184 56.6172 112.184 55.6562H115.711C115.711 56.1875 115.793 56.6367 115.957 57.0039C116.121 57.3711 116.352 57.668 116.648 57.8945C116.953 58.1211 117.312 58.2852 117.727 58.3867C118.148 58.4883 118.609 58.5391 119.109 58.5391C119.719 58.5391 120.219 58.4531 120.609 58.2812C121.008 58.1094 121.301 57.8711 121.488 57.5664C121.684 57.2617 121.781 56.918 121.781 56.5352ZM133.688 48.3203V50.7109H126.305V48.3203H133.688ZM128.133 45.1914H131.508V57.1797C131.508 57.5469 131.555 57.8281 131.648 58.0234C131.75 58.2188 131.898 58.3555 132.094 58.4336C132.289 58.5039 132.535 58.5391 132.832 58.5391C133.043 58.5391 133.23 58.5312 133.395 58.5156C133.566 58.4922 133.711 58.4688 133.828 58.4453L133.84 60.9297C133.551 61.0234 133.238 61.0977 132.902 61.1523C132.566 61.207 132.195 61.2344 131.789 61.2344C131.047 61.2344 130.398 61.1133 129.844 60.8711C129.297 60.6211 128.875 60.2227 128.578 59.6758C128.281 59.1289 128.133 58.4102 128.133 57.5195V45.1914ZM142.453 58.1406V52.4922C142.453 52.0859 142.387 51.7383 142.254 51.4492C142.121 51.1523 141.914 50.9219 141.633 50.7578C141.359 50.5938 141.004 50.5117 140.566 50.5117C140.191 50.5117 139.867 50.5781 139.594 50.7109C139.32 50.8359 139.109 51.0195 138.961 51.2617C138.812 51.4961 138.738 51.7734 138.738 52.0938H135.363C135.363 51.5547 135.488 51.043 135.738 50.5586C135.988 50.0742 136.352 49.6484 136.828 49.2812C137.305 48.9062 137.871 48.6133 138.527 48.4023C139.191 48.1914 139.934 48.0859 140.754 48.0859C141.738 48.0859 142.613 48.25 143.379 48.5781C144.145 48.9062 144.746 49.3984 145.184 50.0547C145.629 50.7109 145.852 51.5312 145.852 52.5156V57.9414C145.852 58.6367 145.895 59.207 145.98 59.6523C146.066 60.0898 146.191 60.4727 146.355 60.8008V61H142.945C142.781 60.6562 142.656 60.2266 142.57 59.7109C142.492 59.1875 142.453 58.6641 142.453 58.1406ZM142.898 53.2773L142.922 55.1875H141.035C140.59 55.1875 140.203 55.2383 139.875 55.3398C139.547 55.4414 139.277 55.5859 139.066 55.7734C138.855 55.9531 138.699 56.1641 138.598 56.4062C138.504 56.6484 138.457 56.9141 138.457 57.2031C138.457 57.4922 138.523 57.7539 138.656 57.9883C138.789 58.2148 138.98 58.3945 139.23 58.5273C139.48 58.6523 139.773 58.7148 140.109 58.7148C140.617 58.7148 141.059 58.6133 141.434 58.4102C141.809 58.207 142.098 57.957 142.301 57.6602C142.512 57.3633 142.621 57.082 142.629 56.8164L143.52 58.2461C143.395 58.5664 143.223 58.8984 143.004 59.2422C142.793 59.5859 142.523 59.9102 142.195 60.2148C141.867 60.5117 141.473 60.7578 141.012 60.9531C140.551 61.1406 140.004 61.2344 139.371 61.2344C138.566 61.2344 137.836 61.0742 137.18 60.7539C136.531 60.4258 136.016 59.9766 135.633 59.4062C135.258 58.8281 135.07 58.1719 135.07 57.4375C135.07 56.7734 135.195 56.1836 135.445 55.668C135.695 55.1523 136.062 54.7188 136.547 54.3672C137.039 54.0078 137.652 53.7383 138.387 53.5586C139.121 53.3711 139.973 53.2773 140.941 53.2773H142.898ZM151.828 51.0859V61H148.453V48.3203H151.629L151.828 51.0859ZM155.648 48.2383L155.59 51.3672C155.426 51.3438 155.227 51.3242 154.992 51.3086C154.766 51.2852 154.559 51.2734 154.371 51.2734C153.895 51.2734 153.48 51.3359 153.129 51.4609C152.785 51.5781 152.496 51.7539 152.262 51.9883C152.035 52.2227 151.863 52.5078 151.746 52.8438C151.637 53.1797 151.574 53.5625 151.559 53.9922L150.879 53.7812C150.879 52.9609 150.961 52.207 151.125 51.5195C151.289 50.8242 151.527 50.2188 151.84 49.7031C152.16 49.1875 152.551 48.7891 153.012 48.5078C153.473 48.2266 154 48.0859 154.594 48.0859C154.781 48.0859 154.973 48.1016 155.168 48.1328C155.363 48.1562 155.523 48.1914 155.648 48.2383ZM164.039 48.3203V50.7109H156.656V48.3203H164.039ZM158.484 45.1914H161.859V57.1797C161.859 57.5469 161.906 57.8281 162 58.0234C162.102 58.2188 162.25 58.3555 162.445 58.4336C162.641 58.5039 162.887 58.5391 163.184 58.5391C163.395 58.5391 163.582 58.5312 163.746 58.5156C163.918 58.4922 164.062 58.4688 164.18 58.4453L164.191 60.9297C163.902 61.0234 163.59 61.0977 163.254 61.1523C162.918 61.207 162.547 61.2344 162.141 61.2344C161.398 61.2344 160.75 61.1133 160.195 60.8711C159.648 60.6211 159.227 60.2227 158.93 59.6758C158.633 59.1289 158.484 58.4102 158.484 57.5195V45.1914ZM173.461 57.9648V48.3203H176.836V61H173.66L173.461 57.9648ZM173.836 55.3633L174.832 55.3398C174.832 56.1836 174.734 56.9688 174.539 57.6953C174.344 58.4141 174.051 59.0391 173.66 59.5703C173.27 60.0938 172.777 60.5039 172.184 60.8008C171.59 61.0898 170.891 61.2344 170.086 61.2344C169.469 61.2344 168.898 61.1484 168.375 60.9766C167.859 60.7969 167.414 60.5195 167.039 60.1445C166.672 59.7617 166.383 59.2734 166.172 58.6797C165.969 58.0781 165.867 57.3555 165.867 56.5117V48.3203H169.242V56.5352C169.242 56.9102 169.285 57.2266 169.371 57.4844C169.465 57.7422 169.594 57.9531 169.758 58.1172C169.922 58.2812 170.113 58.3984 170.332 58.4688C170.559 58.5391 170.809 58.5742 171.082 58.5742C171.777 58.5742 172.324 58.4336 172.723 58.1523C173.129 57.8711 173.414 57.4883 173.578 57.0039C173.75 56.5117 173.836 55.9648 173.836 55.3633ZM182.789 50.7578V65.875H179.414V48.3203H182.543L182.789 50.7578ZM190.816 54.5195V54.7656C190.816 55.6875 190.707 56.543 190.488 57.332C190.277 58.1211 189.965 58.8086 189.551 59.3945C189.137 59.9727 188.621 60.4258 188.004 60.7539C187.395 61.0742 186.691 61.2344 185.895 61.2344C185.121 61.2344 184.449 61.0781 183.879 60.7656C183.309 60.4531 182.828 60.0156 182.438 59.4531C182.055 58.8828 181.746 58.2227 181.512 57.4727C181.277 56.7227 181.098 55.918 180.973 55.0586V54.4141C181.098 53.4922 181.277 52.6484 181.512 51.8828C181.746 51.1094 182.055 50.4414 182.438 49.8789C182.828 49.3086 183.305 48.8672 183.867 48.5547C184.438 48.2422 185.105 48.0859 185.871 48.0859C186.676 48.0859 187.383 48.2383 187.992 48.543C188.609 48.8477 189.125 49.2852 189.539 49.8555C189.961 50.4258 190.277 51.1055 190.488 51.8945C190.707 52.6836 190.816 53.5586 190.816 54.5195ZM187.43 54.7656V54.5195C187.43 53.9805 187.383 53.4844 187.289 53.0312C187.203 52.5703 187.062 52.168 186.867 51.8242C186.68 51.4805 186.43 51.2148 186.117 51.0273C185.812 50.832 185.441 50.7344 185.004 50.7344C184.543 50.7344 184.148 50.8086 183.82 50.957C183.5 51.1055 183.238 51.3203 183.035 51.6016C182.832 51.8828 182.68 52.2188 182.578 52.6094C182.477 53 182.414 53.4414 182.391 53.9336V55.5625C182.43 56.1406 182.539 56.6602 182.719 57.1211C182.898 57.5742 183.176 57.9336 183.551 58.1992C183.926 58.4648 184.418 58.5977 185.027 58.5977C185.473 58.5977 185.848 58.5 186.152 58.3047C186.457 58.1016 186.703 57.8242 186.891 57.4727C187.086 57.1211 187.223 56.7148 187.301 56.2539C187.387 55.793 187.43 55.2969 187.43 54.7656ZM206.039 46.8555L201.398 61H197.66L204 43.9375H206.379L206.039 46.8555ZM209.895 61L205.242 46.8555L204.867 43.9375H207.27L213.645 61H209.895ZM209.684 54.6484V57.4023H200.672V54.6484H209.684ZM221.871 57.4961C221.871 57.2539 221.801 57.0352 221.66 56.8398C221.52 56.6445 221.258 56.4648 220.875 56.3008C220.5 56.1289 219.957 55.9727 219.246 55.832C218.605 55.6914 218.008 55.5156 217.453 55.3047C216.906 55.0859 216.43 54.8242 216.023 54.5195C215.625 54.2148 215.312 53.8555 215.086 53.4414C214.859 53.0195 214.746 52.5391 214.746 52C214.746 51.4688 214.859 50.9688 215.086 50.5C215.32 50.0312 215.652 49.6172 216.082 49.2578C216.52 48.8906 217.051 48.6055 217.676 48.4023C218.309 48.1914 219.02 48.0859 219.809 48.0859C220.91 48.0859 221.855 48.2617 222.645 48.6133C223.441 48.9648 224.051 49.4492 224.473 50.0664C224.902 50.6758 225.117 51.3711 225.117 52.1523H221.742C221.742 51.8242 221.672 51.5312 221.531 51.2734C221.398 51.0078 221.188 50.8008 220.898 50.6523C220.617 50.4961 220.25 50.418 219.797 50.418C219.422 50.418 219.098 50.4844 218.824 50.6172C218.551 50.7422 218.34 50.9141 218.191 51.1328C218.051 51.3438 217.98 51.5781 217.98 51.8359C217.98 52.0312 218.02 52.207 218.098 52.3633C218.184 52.5117 218.32 52.6484 218.508 52.7734C218.695 52.8984 218.938 53.0156 219.234 53.125C219.539 53.2266 219.914 53.3203 220.359 53.4062C221.273 53.5938 222.09 53.8398 222.809 54.1445C223.527 54.4414 224.098 54.8477 224.52 55.3633C224.941 55.8711 225.152 56.5391 225.152 57.3672C225.152 57.9297 225.027 58.4453 224.777 58.9141C224.527 59.3828 224.168 59.793 223.699 60.1445C223.23 60.4883 222.668 60.7578 222.012 60.9531C221.363 61.1406 220.633 61.2344 219.82 61.2344C218.641 61.2344 217.641 61.0234 216.82 60.6016C216.008 60.1797 215.391 59.6445 214.969 58.9961C214.555 58.3398 214.348 57.668 214.348 56.9805H217.547C217.562 57.4414 217.68 57.8125 217.898 58.0938C218.125 58.375 218.41 58.5781 218.754 58.7031C219.105 58.8281 219.484 58.8906 219.891 58.8906C220.328 58.8906 220.691 58.832 220.98 58.7148C221.27 58.5898 221.488 58.4258 221.637 58.2227C221.793 58.0117 221.871 57.7695 221.871 57.4961ZM234.199 57.4961C234.199 57.2539 234.129 57.0352 233.988 56.8398C233.848 56.6445 233.586 56.4648 233.203 56.3008C232.828 56.1289 232.285 55.9727 231.574 55.832C230.934 55.6914 230.336 55.5156 229.781 55.3047C229.234 55.0859 228.758 54.8242 228.352 54.5195C227.953 54.2148 227.641 53.8555 227.414 53.4414C227.188 53.0195 227.074 52.5391 227.074 52C227.074 51.4688 227.188 50.9688 227.414 50.5C227.648 50.0312 227.98 49.6172 228.41 49.2578C228.848 48.8906 229.379 48.6055 230.004 48.4023C230.637 48.1914 231.348 48.0859 232.137 48.0859C233.238 48.0859 234.184 48.2617 234.973 48.6133C235.77 48.9648 236.379 49.4492 236.801 50.0664C237.23 50.6758 237.445 51.3711 237.445 52.1523H234.07C234.07 51.8242 234 51.5312 233.859 51.2734C233.727 51.0078 233.516 50.8008 233.227 50.6523C232.945 50.4961 232.578 50.418 232.125 50.418C231.75 50.418 231.426 50.4844 231.152 50.6172C230.879 50.7422 230.668 50.9141 230.52 51.1328C230.379 51.3438 230.309 51.5781 230.309 51.8359C230.309 52.0312 230.348 52.207 230.426 52.3633C230.512 52.5117 230.648 52.6484 230.836 52.7734C231.023 52.8984 231.266 53.0156 231.562 53.125C231.867 53.2266 232.242 53.3203 232.688 53.4062C233.602 53.5938 234.418 53.8398 235.137 54.1445C235.855 54.4414 236.426 54.8477 236.848 55.3633C237.27 55.8711 237.48 56.5391 237.48 57.3672C237.48 57.9297 237.355 58.4453 237.105 58.9141C236.855 59.3828 236.496 59.793 236.027 60.1445C235.559 60.4883 234.996 60.7578 234.34 60.9531C233.691 61.1406 232.961 61.2344 232.148 61.2344C230.969 61.2344 229.969 61.0234 229.148 60.6016C228.336 60.1797 227.719 59.6445 227.297 58.9961C226.883 58.3398 226.676 57.668 226.676 56.9805H229.875C229.891 57.4414 230.008 57.8125 230.227 58.0938C230.453 58.375 230.738 58.5781 231.082 58.7031C231.434 58.8281 231.812 58.8906 232.219 58.8906C232.656 58.8906 233.02 58.832 233.309 58.7148C233.598 58.5898 233.816 58.4258 233.965 58.2227C234.121 58.0117 234.199 57.7695 234.199 57.4961ZM243.234 48.3203V61H239.848V48.3203H243.234ZM239.637 45.0156C239.637 44.5234 239.809 44.1172 240.152 43.7969C240.496 43.4766 240.957 43.3164 241.535 43.3164C242.105 43.3164 242.562 43.4766 242.906 43.7969C243.258 44.1172 243.434 44.5234 243.434 45.0156C243.434 45.5078 243.258 45.9141 242.906 46.2344C242.562 46.5547 242.105 46.7148 241.535 46.7148C240.957 46.7148 240.496 46.5547 240.152 46.2344C239.809 45.9141 239.637 45.5078 239.637 45.0156ZM252.879 57.4961C252.879 57.2539 252.809 57.0352 252.668 56.8398C252.527 56.6445 252.266 56.4648 251.883 56.3008C251.508 56.1289 250.965 55.9727 250.254 55.832C249.613 55.6914 249.016 55.5156 248.461 55.3047C247.914 55.0859 247.438 54.8242 247.031 54.5195C246.633 54.2148 246.32 53.8555 246.094 53.4414C245.867 53.0195 245.754 52.5391 245.754 52C245.754 51.4688 245.867 50.9688 246.094 50.5C246.328 50.0312 246.66 49.6172 247.09 49.2578C247.527 48.8906 248.059 48.6055 248.684 48.4023C249.316 48.1914 250.027 48.0859 250.816 48.0859C251.918 48.0859 252.863 48.2617 253.652 48.6133C254.449 48.9648 255.059 49.4492 255.48 50.0664C255.91 50.6758 256.125 51.3711 256.125 52.1523H252.75C252.75 51.8242 252.68 51.5312 252.539 51.2734C252.406 51.0078 252.195 50.8008 251.906 50.6523C251.625 50.4961 251.258 50.418 250.805 50.418C250.43 50.418 250.105 50.4844 249.832 50.6172C249.559 50.7422 249.348 50.9141 249.199 51.1328C249.059 51.3438 248.988 51.5781 248.988 51.8359C248.988 52.0312 249.027 52.207 249.105 52.3633C249.191 52.5117 249.328 52.6484 249.516 52.7734C249.703 52.8984 249.945 53.0156 250.242 53.125C250.547 53.2266 250.922 53.3203 251.367 53.4062C252.281 53.5938 253.098 53.8398 253.816 54.1445C254.535 54.4414 255.105 54.8477 255.527 55.3633C255.949 55.8711 256.16 56.5391 256.16 57.3672C256.16 57.9297 256.035 58.4453 255.785 58.9141C255.535 59.3828 255.176 59.793 254.707 60.1445C254.238 60.4883 253.676 60.7578 253.02 60.9531C252.371 61.1406 251.641 61.2344 250.828 61.2344C249.648 61.2344 248.648 61.0234 247.828 60.6016C247.016 60.1797 246.398 59.6445 245.977 58.9961C245.562 58.3398 245.355 57.668 245.355 56.9805H248.555C248.57 57.4414 248.688 57.8125 248.906 58.0938C249.133 58.375 249.418 58.5781 249.762 58.7031C250.113 58.8281 250.492 58.8906 250.898 58.8906C251.336 58.8906 251.699 58.832 251.988 58.7148C252.277 58.5898 252.496 58.4258 252.645 58.2227C252.801 58.0117 252.879 57.7695 252.879 57.4961ZM264.562 48.3203V50.7109H257.18V48.3203H264.562ZM259.008 45.1914H262.383V57.1797C262.383 57.5469 262.43 57.8281 262.523 58.0234C262.625 58.2188 262.773 58.3555 262.969 58.4336C263.164 58.5039 263.41 58.5391 263.707 58.5391C263.918 58.5391 264.105 58.5312 264.27 58.5156C264.441 58.4922 264.586 58.4688 264.703 58.4453L264.715 60.9297C264.426 61.0234 264.113 61.0977 263.777 61.1523C263.441 61.207 263.07 61.2344 262.664 61.2344C261.922 61.2344 261.273 61.1133 260.719 60.8711C260.172 60.6211 259.75 60.2227 259.453 59.6758C259.156 59.1289 259.008 58.4102 259.008 57.5195V45.1914ZM273.328 58.1406V52.4922C273.328 52.0859 273.262 51.7383 273.129 51.4492C272.996 51.1523 272.789 50.9219 272.508 50.7578C272.234 50.5938 271.879 50.5117 271.441 50.5117C271.066 50.5117 270.742 50.5781 270.469 50.7109C270.195 50.8359 269.984 51.0195 269.836 51.2617C269.688 51.4961 269.613 51.7734 269.613 52.0938H266.238C266.238 51.5547 266.363 51.043 266.613 50.5586C266.863 50.0742 267.227 49.6484 267.703 49.2812C268.18 48.9062 268.746 48.6133 269.402 48.4023C270.066 48.1914 270.809 48.0859 271.629 48.0859C272.613 48.0859 273.488 48.25 274.254 48.5781C275.02 48.9062 275.621 49.3984 276.059 50.0547C276.504 50.7109 276.727 51.5312 276.727 52.5156V57.9414C276.727 58.6367 276.77 59.207 276.855 59.6523C276.941 60.0898 277.066 60.4727 277.23 60.8008V61H273.82C273.656 60.6562 273.531 60.2266 273.445 59.7109C273.367 59.1875 273.328 58.6641 273.328 58.1406ZM273.773 53.2773L273.797 55.1875H271.91C271.465 55.1875 271.078 55.2383 270.75 55.3398C270.422 55.4414 270.152 55.5859 269.941 55.7734C269.73 55.9531 269.574 56.1641 269.473 56.4062C269.379 56.6484 269.332 56.9141 269.332 57.2031C269.332 57.4922 269.398 57.7539 269.531 57.9883C269.664 58.2148 269.855 58.3945 270.105 58.5273C270.355 58.6523 270.648 58.7148 270.984 58.7148C271.492 58.7148 271.934 58.6133 272.309 58.4102C272.684 58.207 272.973 57.957 273.176 57.6602C273.387 57.3633 273.496 57.082 273.504 56.8164L274.395 58.2461C274.27 58.5664 274.098 58.8984 273.879 59.2422C273.668 59.5859 273.398 59.9102 273.07 60.2148C272.742 60.5117 272.348 60.7578 271.887 60.9531C271.426 61.1406 270.879 61.2344 270.246 61.2344C269.441 61.2344 268.711 61.0742 268.055 60.7539C267.406 60.4258 266.891 59.9766 266.508 59.4062C266.133 58.8281 265.945 58.1719 265.945 57.4375C265.945 56.7734 266.07 56.1836 266.32 55.668C266.57 55.1523 266.938 54.7188 267.422 54.3672C267.914 54.0078 268.527 53.7383 269.262 53.5586C269.996 53.3711 270.848 53.2773 271.816 53.2773H273.773ZM282.633 51.0273V61H279.258V48.3203H282.422L282.633 51.0273ZM282.141 54.2148H281.227C281.227 53.2773 281.348 52.4336 281.59 51.6836C281.832 50.9258 282.172 50.2812 282.609 49.75C283.047 49.2109 283.566 48.8008 284.168 48.5195C284.777 48.2305 285.457 48.0859 286.207 48.0859C286.801 48.0859 287.344 48.1719 287.836 48.3438C288.328 48.5156 288.75 48.7891 289.102 49.1641C289.461 49.5391 289.734 50.0352 289.922 50.6523C290.117 51.2695 290.215 52.0234 290.215 52.9141V61H286.816V52.9023C286.816 52.3398 286.738 51.9023 286.582 51.5898C286.426 51.2773 286.195 51.0586 285.891 50.9336C285.594 50.8008 285.227 50.7344 284.789 50.7344C284.336 50.7344 283.941 50.8242 283.605 51.0039C283.277 51.1836 283.004 51.4336 282.785 51.7539C282.574 52.0664 282.414 52.4336 282.305 52.8555C282.195 53.2773 282.141 53.7305 282.141 54.2148ZM298.02 58.5977C298.434 58.5977 298.801 58.5195 299.121 58.3633C299.441 58.1992 299.691 57.9727 299.871 57.6836C300.059 57.3867 300.156 57.0391 300.164 56.6406H303.34C303.332 57.5312 303.094 58.3242 302.625 59.0195C302.156 59.707 301.527 60.25 300.738 60.6484C299.949 61.0391 299.066 61.2344 298.09 61.2344C297.105 61.2344 296.246 61.0703 295.512 60.7422C294.785 60.4141 294.18 59.9609 293.695 59.3828C293.211 58.7969 292.848 58.1172 292.605 57.3438C292.363 56.5625 292.242 55.7266 292.242 54.8359V54.4961C292.242 53.5977 292.363 52.7617 292.605 51.9883C292.848 51.207 293.211 50.5273 293.695 49.9492C294.18 49.3633 294.785 48.9062 295.512 48.5781C296.238 48.25 297.09 48.0859 298.066 48.0859C299.105 48.0859 300.016 48.2852 300.797 48.6836C301.586 49.082 302.203 49.6523 302.648 50.3945C303.102 51.1289 303.332 52 303.34 53.0078H300.164C300.156 52.5859 300.066 52.2031 299.895 51.8594C299.73 51.5156 299.488 51.2422 299.168 51.0391C298.855 50.8281 298.469 50.7227 298.008 50.7227C297.516 50.7227 297.113 50.8281 296.801 51.0391C296.488 51.2422 296.246 51.5234 296.074 51.8828C295.902 52.2344 295.781 52.6367 295.711 53.0898C295.648 53.5352 295.617 54.0039 295.617 54.4961V54.8359C295.617 55.3281 295.648 55.8008 295.711 56.2539C295.773 56.707 295.891 57.1094 296.062 57.4609C296.242 57.8125 296.488 58.0898 296.801 58.293C297.113 58.4961 297.52 58.5977 298.02 58.5977ZM311.133 61.2344C310.148 61.2344 309.266 61.0781 308.484 60.7656C307.703 60.4453 307.039 60.0039 306.492 59.4414C305.953 58.8789 305.539 58.2266 305.25 57.4844C304.961 56.7344 304.816 55.9375 304.816 55.0938V54.625C304.816 53.6641 304.953 52.7852 305.227 51.9883C305.5 51.1914 305.891 50.5 306.398 49.9141C306.914 49.3281 307.539 48.8789 308.273 48.5664C309.008 48.2461 309.836 48.0859 310.758 48.0859C311.656 48.0859 312.453 48.2344 313.148 48.5312C313.844 48.8281 314.426 49.25 314.895 49.7969C315.371 50.3438 315.73 51 315.973 51.7656C316.215 52.5234 316.336 53.3672 316.336 54.2969V55.7031H306.258V53.4531H313.02V53.1953C313.02 52.7266 312.934 52.3086 312.762 51.9414C312.598 51.5664 312.348 51.2695 312.012 51.0508C311.676 50.832 311.246 50.7227 310.723 50.7227C310.277 50.7227 309.895 50.8203 309.574 51.0156C309.254 51.2109 308.992 51.4844 308.789 51.8359C308.594 52.1875 308.445 52.6016 308.344 53.0781C308.25 53.5469 308.203 54.0625 308.203 54.625V55.0938C308.203 55.6016 308.273 56.0703 308.414 56.5C308.562 56.9297 308.77 57.3008 309.035 57.6133C309.309 57.9258 309.637 58.168 310.02 58.3398C310.41 58.5117 310.852 58.5977 311.344 58.5977C311.953 58.5977 312.52 58.4805 313.043 58.2461C313.574 58.0039 314.031 57.6406 314.414 57.1562L316.055 58.9375C315.789 59.3203 315.426 59.6875 314.965 60.0391C314.512 60.3906 313.965 60.6797 313.324 60.9062C312.684 61.125 311.953 61.2344 311.133 61.2344ZM331.09 54.918H326.742V52.1758H331.09C331.762 52.1758 332.309 52.0664 332.73 51.8477C333.152 51.6211 333.461 51.3086 333.656 50.9102C333.852 50.5117 333.949 50.0625 333.949 49.5625C333.949 49.0547 333.852 48.582 333.656 48.1445C333.461 47.707 333.152 47.3555 332.73 47.0898C332.309 46.8242 331.762 46.6914 331.09 46.6914H327.961V61H324.445V43.9375H331.09C332.426 43.9375 333.57 44.1797 334.523 44.6641C335.484 45.1406 336.219 45.8008 336.727 46.6445C337.234 47.4883 337.488 48.4531 337.488 49.5391C337.488 50.6406 337.234 51.5938 336.727 52.3984C336.219 53.2031 335.484 53.8242 334.523 54.2617C333.57 54.6992 332.426 54.918 331.09 54.918ZM343.266 43V61H339.879V43H343.266ZM352.898 58.1406V52.4922C352.898 52.0859 352.832 51.7383 352.699 51.4492C352.566 51.1523 352.359 50.9219 352.078 50.7578C351.805 50.5938 351.449 50.5117 351.012 50.5117C350.637 50.5117 350.312 50.5781 350.039 50.7109C349.766 50.8359 349.555 51.0195 349.406 51.2617C349.258 51.4961 349.184 51.7734 349.184 52.0938H345.809C345.809 51.5547 345.934 51.043 346.184 50.5586C346.434 50.0742 346.797 49.6484 347.273 49.2812C347.75 48.9062 348.316 48.6133 348.973 48.4023C349.637 48.1914 350.379 48.0859 351.199 48.0859C352.184 48.0859 353.059 48.25 353.824 48.5781C354.59 48.9062 355.191 49.3984 355.629 50.0547C356.074 50.7109 356.297 51.5312 356.297 52.5156V57.9414C356.297 58.6367 356.34 59.207 356.426 59.6523C356.512 60.0898 356.637 60.4727 356.801 60.8008V61H353.391C353.227 60.6562 353.102 60.2266 353.016 59.7109C352.938 59.1875 352.898 58.6641 352.898 58.1406ZM353.344 53.2773L353.367 55.1875H351.48C351.035 55.1875 350.648 55.2383 350.32 55.3398C349.992 55.4414 349.723 55.5859 349.512 55.7734C349.301 55.9531 349.145 56.1641 349.043 56.4062C348.949 56.6484 348.902 56.9141 348.902 57.2031C348.902 57.4922 348.969 57.7539 349.102 57.9883C349.234 58.2148 349.426 58.3945 349.676 58.5273C349.926 58.6523 350.219 58.7148 350.555 58.7148C351.062 58.7148 351.504 58.6133 351.879 58.4102C352.254 58.207 352.543 57.957 352.746 57.6602C352.957 57.3633 353.066 57.082 353.074 56.8164L353.965 58.2461C353.84 58.5664 353.668 58.8984 353.449 59.2422C353.238 59.5859 352.969 59.9102 352.641 60.2148C352.312 60.5117 351.918 60.7578 351.457 60.9531C350.996 61.1406 350.449 61.2344 349.816 61.2344C349.012 61.2344 348.281 61.0742 347.625 60.7539C346.977 60.4258 346.461 59.9766 346.078 59.4062C345.703 58.8281 345.516 58.1719 345.516 57.4375C345.516 56.7734 345.641 56.1836 345.891 55.668C346.141 55.1523 346.508 54.7188 346.992 54.3672C347.484 54.0078 348.098 53.7383 348.832 53.5586C349.566 53.3711 350.418 53.2773 351.387 53.2773H353.344ZM365.109 48.3203V50.7109H357.727V48.3203H365.109ZM359.555 45.1914H362.93V57.1797C362.93 57.5469 362.977 57.8281 363.07 58.0234C363.172 58.2188 363.32 58.3555 363.516 58.4336C363.711 58.5039 363.957 58.5391 364.254 58.5391C364.465 58.5391 364.652 58.5312 364.816 58.5156C364.988 58.4922 365.133 58.4688 365.25 58.4453L365.262 60.9297C364.973 61.0234 364.66 61.0977 364.324 61.1523C363.988 61.207 363.617 61.2344 363.211 61.2344C362.469 61.2344 361.82 61.1133 361.266 60.8711C360.719 60.6211 360.297 60.2227 360 59.6758C359.703 59.1289 359.555 58.4102 359.555 57.5195V45.1914ZM371.332 61H367.934V47.1953C367.934 46.2344 368.121 45.4258 368.496 44.7695C368.879 44.1055 369.414 43.6055 370.102 43.2695C370.797 42.9258 371.621 42.7539 372.574 42.7539C372.887 42.7539 373.188 42.7773 373.477 42.8242C373.766 42.8633 374.047 42.9141 374.32 42.9766L374.285 45.5195C374.137 45.4805 373.98 45.4531 373.816 45.4375C373.652 45.4219 373.461 45.4141 373.242 45.4141C372.836 45.4141 372.488 45.4844 372.199 45.625C371.918 45.7578 371.703 45.957 371.555 46.2227C371.406 46.4883 371.332 46.8125 371.332 47.1953V61ZM373.863 48.3203V50.7109H366.047V48.3203H373.863ZM375.094 54.7891V54.543C375.094 53.6133 375.227 52.7578 375.492 51.9766C375.758 51.1875 376.145 50.5039 376.652 49.9258C377.16 49.3477 377.785 48.8984 378.527 48.5781C379.27 48.25 380.121 48.0859 381.082 48.0859C382.043 48.0859 382.898 48.25 383.648 48.5781C384.398 48.8984 385.027 49.3477 385.535 49.9258C386.051 50.5039 386.441 51.1875 386.707 51.9766C386.973 52.7578 387.105 53.6133 387.105 54.543V54.7891C387.105 55.7109 386.973 56.5664 386.707 57.3555C386.441 58.1367 386.051 58.8203 385.535 59.4062C385.027 59.9844 384.402 60.4336 383.66 60.7539C382.918 61.0742 382.066 61.2344 381.105 61.2344C380.145 61.2344 379.289 61.0742 378.539 60.7539C377.797 60.4336 377.168 59.9844 376.652 59.4062C376.145 58.8203 375.758 58.1367 375.492 57.3555C375.227 56.5664 375.094 55.7109 375.094 54.7891ZM378.469 54.543V54.7891C378.469 55.3203 378.516 55.8164 378.609 56.2773C378.703 56.7383 378.852 57.1445 379.055 57.4961C379.266 57.8398 379.539 58.1094 379.875 58.3047C380.211 58.5 380.621 58.5977 381.105 58.5977C381.574 58.5977 381.977 58.5 382.312 58.3047C382.648 58.1094 382.918 57.8398 383.121 57.4961C383.324 57.1445 383.473 56.7383 383.566 56.2773C383.668 55.8164 383.719 55.3203 383.719 54.7891V54.543C383.719 54.0273 383.668 53.543 383.566 53.0898C383.473 52.6289 383.32 52.2227 383.109 51.8711C382.906 51.5117 382.637 51.2305 382.301 51.0273C381.965 50.8242 381.559 50.7227 381.082 50.7227C380.605 50.7227 380.199 50.8242 379.863 51.0273C379.535 51.2305 379.266 51.5117 379.055 51.8711C378.852 52.2227 378.703 52.6289 378.609 53.0898C378.516 53.543 378.469 54.0273 378.469 54.543ZM392.555 51.0859V61H389.18V48.3203H392.355L392.555 51.0859ZM396.375 48.2383L396.316 51.3672C396.152 51.3438 395.953 51.3242 395.719 51.3086C395.492 51.2852 395.285 51.2734 395.098 51.2734C394.621 51.2734 394.207 51.3359 393.855 51.4609C393.512 51.5781 393.223 51.7539 392.988 51.9883C392.762 52.2227 392.59 52.5078 392.473 52.8438C392.363 53.1797 392.301 53.5625 392.285 53.9922L391.605 53.7812C391.605 52.9609 391.688 52.207 391.852 51.5195C392.016 50.8242 392.254 50.2188 392.566 49.7031C392.887 49.1875 393.277 48.7891 393.738 48.5078C394.199 48.2266 394.727 48.0859 395.32 48.0859C395.508 48.0859 395.699 48.1016 395.895 48.1328C396.09 48.1562 396.25 48.1914 396.375 48.2383ZM401.344 50.9453V61H397.957V48.3203H401.133L401.344 50.9453ZM400.875 54.2148H399.938C399.938 53.332 400.043 52.5195 400.254 51.7773C400.473 51.0273 400.789 50.3789 401.203 49.832C401.625 49.2773 402.145 48.8477 402.762 48.543C403.379 48.2383 404.094 48.0859 404.906 48.0859C405.469 48.0859 405.984 48.1719 406.453 48.3438C406.922 48.5078 407.324 48.7695 407.66 49.1289C408.004 49.4805 408.27 49.9414 408.457 50.5117C408.645 51.0742 408.738 51.75 408.738 52.5391V61H405.363V52.9141C405.363 52.3359 405.285 51.8906 405.129 51.5781C404.973 51.2656 404.75 51.0469 404.461 50.9219C404.18 50.7969 403.84 50.7344 403.441 50.7344C403.004 50.7344 402.621 50.8242 402.293 51.0039C401.973 51.1836 401.707 51.4336 401.496 51.7539C401.285 52.0664 401.129 52.4336 401.027 52.8555C400.926 53.2773 400.875 53.7305 400.875 54.2148ZM408.422 53.8281L407.215 53.9805C407.215 53.1523 407.316 52.3828 407.52 51.6719C407.73 50.9609 408.039 50.3359 408.445 49.7969C408.859 49.2578 409.371 48.8398 409.98 48.543C410.59 48.2383 411.293 48.0859 412.09 48.0859C412.699 48.0859 413.254 48.1758 413.754 48.3555C414.254 48.5273 414.68 48.8047 415.031 49.1875C415.391 49.5625 415.664 50.0547 415.852 50.6641C416.047 51.2734 416.145 52.0195 416.145 52.9023V61H412.758V52.9023C412.758 52.3164 412.68 51.8711 412.523 51.5664C412.375 51.2539 412.156 51.0391 411.867 50.9219C411.586 50.7969 411.25 50.7344 410.859 50.7344C410.453 50.7344 410.098 50.8164 409.793 50.9805C409.488 51.1367 409.234 51.3555 409.031 51.6367C408.828 51.918 408.676 52.2461 408.574 52.6211C408.473 52.9883 408.422 53.3906 408.422 53.8281Z" fill="#888888"/>
<path d="M114.117 84.875H122.344V107.164C122.344 109.82 121.789 112.07 120.68 113.914C119.57 115.742 118.016 117.125 116.016 118.062C114.016 119 111.664 119.469 108.961 119.469C106.289 119.469 103.938 119 101.906 118.062C99.8906 117.125 98.3125 115.742 97.1719 113.914C96.0469 112.07 95.4844 109.82 95.4844 107.164V84.875H103.734V107.164C103.734 108.57 103.938 109.719 104.344 110.609C104.75 111.484 105.344 112.125 106.125 112.531C106.906 112.938 107.852 113.141 108.961 113.141C110.086 113.141 111.031 112.938 111.797 112.531C112.562 112.125 113.141 111.484 113.531 110.609C113.922 109.719 114.117 108.57 114.117 107.164V84.875ZM134.906 99.0547V119H127.008V93.6406H134.414L134.906 99.0547ZM133.969 105.453L132.117 105.5C132.117 103.562 132.352 101.836 132.82 100.32C133.289 98.7891 133.953 97.4922 134.812 96.4297C135.672 95.3672 136.695 94.5625 137.883 94.0156C139.086 93.4531 140.422 93.1719 141.891 93.1719C143.062 93.1719 144.133 93.3438 145.102 93.6875C146.086 94.0312 146.93 94.5859 147.633 95.3516C148.352 96.1172 148.898 97.1328 149.273 98.3984C149.664 99.6484 149.859 101.195 149.859 103.039V119H141.914V103.016C141.914 102 141.773 101.227 141.492 100.695C141.211 100.148 140.805 99.7734 140.273 99.5703C139.742 99.3672 139.094 99.2656 138.328 99.2656C137.516 99.2656 136.828 99.4219 136.266 99.7344C135.703 100.047 135.25 100.484 134.906 101.047C134.578 101.594 134.336 102.242 134.18 102.992C134.039 103.742 133.969 104.562 133.969 105.453ZM162.586 93.6406V119H154.664V93.6406H162.586ZM154.195 87.1016C154.195 85.9766 154.602 85.0547 155.414 84.3359C156.227 83.6172 157.281 83.2578 158.578 83.2578C159.875 83.2578 160.93 83.6172 161.742 84.3359C162.555 85.0547 162.961 85.9766 162.961 87.1016C162.961 88.2266 162.555 89.1484 161.742 89.8672C160.93 90.5859 159.875 90.9453 158.578 90.9453C157.281 90.9453 156.227 90.5859 155.414 89.8672C154.602 89.1484 154.195 88.2266 154.195 87.1016ZM180.82 93.6406V99.125H165.539V93.6406H180.82ZM168.75 87.3359H176.648V110.727C176.648 111.398 176.727 111.922 176.883 112.297C177.039 112.656 177.305 112.914 177.68 113.07C178.07 113.211 178.586 113.281 179.227 113.281C179.68 113.281 180.055 113.273 180.352 113.258C180.648 113.227 180.93 113.188 181.195 113.141V118.789C180.523 119.008 179.82 119.172 179.086 119.281C178.352 119.406 177.57 119.469 176.742 119.469C175.055 119.469 173.609 119.203 172.406 118.672C171.219 118.141 170.312 117.305 169.688 116.164C169.062 115.023 168.75 113.539 168.75 111.711V87.3359ZM211.406 84.875V119H203.18V84.875H211.406ZM221.672 84.875V91.2266H193.148V84.875H221.672ZM234.961 119.469C232.898 119.469 231.055 119.148 229.43 118.508C227.805 117.852 226.43 116.953 225.305 115.812C224.195 114.672 223.344 113.359 222.75 111.875C222.172 110.391 221.883 108.82 221.883 107.164V106.273C221.883 104.414 222.141 102.695 222.656 101.117C223.172 99.5234 223.938 98.1328 224.953 96.9453C225.969 95.7578 227.242 94.8359 228.773 94.1797C230.305 93.5078 232.086 93.1719 234.117 93.1719C235.914 93.1719 237.523 93.4609 238.945 94.0391C240.367 94.6172 241.57 95.4453 242.555 96.5234C243.555 97.6016 244.312 98.9062 244.828 100.438C245.359 101.969 245.625 103.688 245.625 105.594V108.805H224.906V103.859H237.914V103.25C237.93 102.406 237.781 101.688 237.469 101.094C237.172 100.5 236.734 100.047 236.156 99.7344C235.578 99.4219 234.875 99.2656 234.047 99.2656C233.188 99.2656 232.477 99.4531 231.914 99.8281C231.367 100.203 230.938 100.719 230.625 101.375C230.328 102.016 230.117 102.758 229.992 103.602C229.867 104.445 229.805 105.336 229.805 106.273V107.164C229.805 108.102 229.93 108.953 230.18 109.719C230.445 110.484 230.82 111.141 231.305 111.688C231.805 112.219 232.398 112.633 233.086 112.93C233.789 113.227 234.586 113.375 235.477 113.375C236.555 113.375 237.617 113.172 238.664 112.766C239.711 112.359 240.609 111.688 241.359 110.75L244.945 115.016C244.43 115.75 243.695 116.461 242.742 117.148C241.805 117.836 240.68 118.398 239.367 118.836C238.055 119.258 236.586 119.469 234.961 119.469ZM262.125 111.875C262.125 111.438 261.977 111.062 261.68 110.75C261.398 110.422 260.898 110.125 260.18 109.859C259.461 109.578 258.453 109.297 257.156 109.016C255.922 108.75 254.758 108.398 253.664 107.961C252.586 107.523 251.641 106.992 250.828 106.367C250.016 105.742 249.375 105 248.906 104.141C248.453 103.281 248.227 102.297 248.227 101.188C248.227 100.109 248.453 99.0938 248.906 98.1406C249.375 97.1719 250.055 96.3203 250.945 95.5859C251.852 94.8359 252.953 94.25 254.25 93.8281C255.547 93.3906 257.023 93.1719 258.68 93.1719C260.961 93.1719 262.93 93.5234 264.586 94.2266C266.242 94.9141 267.516 95.8828 268.406 97.1328C269.312 98.3672 269.766 99.7969 269.766 101.422H261.867C261.867 100.781 261.758 100.234 261.539 99.7812C261.336 99.3281 261 98.9844 260.531 98.75C260.062 98.5 259.438 98.375 258.656 98.375C258.109 98.375 257.609 98.4766 257.156 98.6797C256.719 98.8828 256.367 99.1641 256.102 99.5234C255.836 99.8828 255.703 100.305 255.703 100.789C255.703 101.133 255.781 101.445 255.938 101.727C256.109 101.992 256.367 102.242 256.711 102.477C257.055 102.695 257.492 102.898 258.023 103.086C258.555 103.258 259.195 103.414 259.945 103.555C261.648 103.867 263.242 104.312 264.727 104.891C266.211 105.469 267.414 106.289 268.336 107.352C269.273 108.414 269.742 109.844 269.742 111.641C269.742 112.766 269.484 113.805 268.969 114.758C268.453 115.695 267.711 116.523 266.742 117.242C265.773 117.945 264.609 118.492 263.25 118.883C261.891 119.273 260.359 119.469 258.656 119.469C256.234 119.469 254.188 119.039 252.516 118.18C250.844 117.305 249.578 116.211 248.719 114.898C247.875 113.57 247.453 112.227 247.453 110.867H254.812C254.844 111.648 255.031 112.289 255.375 112.789C255.734 113.289 256.211 113.656 256.805 113.891C257.398 114.125 258.086 114.242 258.867 114.242C259.586 114.242 260.18 114.141 260.648 113.938C261.133 113.734 261.5 113.461 261.75 113.117C262 112.758 262.125 112.344 262.125 111.875ZM286.805 93.6406V99.125H271.523V93.6406H286.805ZM274.734 87.3359H282.633V110.727C282.633 111.398 282.711 111.922 282.867 112.297C283.023 112.656 283.289 112.914 283.664 113.07C284.055 113.211 284.57 113.281 285.211 113.281C285.664 113.281 286.039 113.273 286.336 113.258C286.633 113.227 286.914 113.188 287.18 113.141V118.789C286.508 119.008 285.805 119.172 285.07 119.281C284.336 119.406 283.555 119.469 282.727 119.469C281.039 119.469 279.594 119.203 278.391 118.672C277.203 118.141 276.297 117.305 275.672 116.164C275.047 115.023 274.734 113.539 274.734 111.711V87.3359ZM298.289 93.6406V119H290.367V93.6406H298.289ZM289.898 87.1016C289.898 85.9766 290.305 85.0547 291.117 84.3359C291.93 83.6172 292.984 83.2578 294.281 83.2578C295.578 83.2578 296.633 83.6172 297.445 84.3359C298.258 85.0547 298.664 85.9766 298.664 87.1016C298.664 88.2266 298.258 89.1484 297.445 89.8672C296.633 90.5859 295.578 90.9453 294.281 90.9453C292.984 90.9453 291.93 90.5859 291.117 89.8672C290.305 89.1484 289.898 88.2266 289.898 87.1016ZM310.922 99.0547V119H303.023V93.6406H310.43L310.922 99.0547ZM309.984 105.453L308.133 105.5C308.133 103.562 308.367 101.836 308.836 100.32C309.305 98.7891 309.969 97.4922 310.828 96.4297C311.688 95.3672 312.711 94.5625 313.898 94.0156C315.102 93.4531 316.438 93.1719 317.906 93.1719C319.078 93.1719 320.148 93.3438 321.117 93.6875C322.102 94.0312 322.945 94.5859 323.648 95.3516C324.367 96.1172 324.914 97.1328 325.289 98.3984C325.68 99.6484 325.875 101.195 325.875 103.039V119H317.93V103.016C317.93 102 317.789 101.227 317.508 100.695C317.227 100.148 316.82 99.7734 316.289 99.5703C315.758 99.3672 315.109 99.2656 314.344 99.2656C313.531 99.2656 312.844 99.4219 312.281 99.7344C311.719 100.047 311.266 100.484 310.922 101.047C310.594 101.594 310.352 102.242 310.195 102.992C310.055 103.742 309.984 104.562 309.984 105.453ZM346.195 93.6406H353.367V118.016C353.367 120.359 352.828 122.344 351.75 123.969C350.672 125.609 349.164 126.852 347.227 127.695C345.305 128.555 343.055 128.984 340.477 128.984C339.336 128.984 338.172 128.836 336.984 128.539C335.797 128.258 334.688 127.836 333.656 127.273C332.625 126.711 331.758 126.016 331.055 125.188L334.359 120.547C335 121.266 335.805 121.875 336.773 122.375C337.742 122.891 338.883 123.148 340.195 123.148C341.336 123.148 342.289 122.945 343.055 122.539C343.836 122.133 344.43 121.539 344.836 120.758C345.242 119.992 345.445 119.062 345.445 117.969V99.6406L346.195 93.6406ZM329.344 106.625V106.133C329.344 104.211 329.578 102.461 330.047 100.883C330.531 99.2891 331.219 97.9219 332.109 96.7812C333.016 95.625 334.109 94.7344 335.391 94.1094C336.672 93.4844 338.117 93.1719 339.727 93.1719C341.461 93.1719 342.883 93.5078 343.992 94.1797C345.117 94.8359 346.016 95.7578 346.688 96.9453C347.375 98.1328 347.906 99.5234 348.281 101.117C348.672 102.695 349 104.398 349.266 106.227V106.812C349 108.531 348.633 110.156 348.164 111.688C347.711 113.203 347.117 114.547 346.383 115.719C345.648 116.891 344.727 117.812 343.617 118.484C342.523 119.141 341.211 119.469 339.68 119.469C338.086 119.469 336.648 119.148 335.367 118.508C334.102 117.867 333.016 116.969 332.109 115.812C331.219 114.656 330.531 113.297 330.047 111.734C329.578 110.172 329.344 108.469 329.344 106.625ZM337.242 106.133V106.625C337.242 107.578 337.328 108.461 337.5 109.273C337.688 110.086 337.969 110.805 338.344 111.43C338.719 112.039 339.18 112.516 339.727 112.859C340.289 113.203 340.945 113.375 341.695 113.375C342.836 113.375 343.758 113.133 344.461 112.648C345.164 112.164 345.672 111.477 345.984 110.586C346.297 109.695 346.43 108.648 346.383 107.445V105.594C346.414 104.562 346.344 103.656 346.172 102.875C346 102.078 345.727 101.414 345.352 100.883C344.992 100.352 344.508 99.9531 343.898 99.6875C343.305 99.4062 342.586 99.2656 341.742 99.2656C341.008 99.2656 340.359 99.4375 339.797 99.7812C339.234 100.125 338.766 100.609 338.391 101.234C338.016 101.844 337.727 102.57 337.523 103.414C337.336 104.242 337.242 105.148 337.242 106.133Z" fill="black"/>
<path d="M1134 0H1348C1356.28 0 1363 6.71573 1363 15V148C1363 156.284 1356.28 163 1348 163H1134V0Z" fill="#5584B0"/>
<path d="M1210.62 43.625H1286.38V119.375H1210.62V43.625Z" fill="white" fill-opacity="0.01"/>
<path d="M1276.91 72.0312V105.172C1276.91 107.787 1274.79 109.906 1272.17 109.906H1224.83C1222.21 109.906 1220.09 107.787 1220.09 105.172V57.8281C1220.09 55.2134 1222.21 53.0938 1224.83 53.0938H1261.12" stroke="white" stroke-width="7.24" stroke-linecap="round" stroke-linejoin="round"/>
<path d="M1232.72 75.1875L1248.5 87.8125L1276.91 53.0938" stroke="white" stroke-width="7.24" stroke-linecap="round" stroke-linejoin="round"/>
</svg>
