<svg width="1363" height="163" viewBox="0 0 1363 163" fill="none" xmlns="http://www.w3.org/2000/svg">
<path d="M0 15C0 6.71573 6.71573 0 15 0H37V163H15C6.71573 163 0 156.284 0 148V15Z" fill="#424242"/>
<rect width="1097" height="163" transform="translate(37)" fill="#F0F0F0"/>
<path d="M101.906 53.9219L94.3945 51.2383V48.0859L104.602 52.375V54.6367L101.906 53.9219ZM94.3945 56.1719L101.918 53.4297L104.602 52.7852V55.0352L94.3945 59.3242V56.1719ZM121.781 56.5352C121.781 56.2305 121.734 55.957 121.641 55.7148C121.555 55.4648 121.391 55.2383 121.148 55.0352C120.906 54.8242 120.566 54.6172 120.129 54.4141C119.691 54.2109 119.125 54 118.43 53.7812C117.656 53.5312 116.922 53.25 116.227 52.9375C115.539 52.625 114.93 52.2617 114.398 51.8477C113.875 51.4258 113.461 50.9375 113.156 50.3828C112.859 49.8281 112.711 49.1836 112.711 48.4492C112.711 47.7383 112.867 47.0938 113.18 46.5156C113.492 45.9297 113.93 45.4297 114.492 45.0156C115.055 44.5938 115.719 44.2695 116.484 44.043C117.258 43.8164 118.105 43.7031 119.027 43.7031C120.285 43.7031 121.383 43.9297 122.32 44.3828C123.258 44.8359 123.984 45.457 124.5 46.2461C125.023 47.0352 125.285 47.9375 125.285 48.9531H121.793C121.793 48.4531 121.688 48.0156 121.477 47.6406C121.273 47.2578 120.961 46.957 120.539 46.7383C120.125 46.5195 119.602 46.4102 118.969 46.4102C118.359 46.4102 117.852 46.5039 117.445 46.6914C117.039 46.8711 116.734 47.1172 116.531 47.4297C116.328 47.7344 116.227 48.0781 116.227 48.4609C116.227 48.75 116.297 49.0117 116.438 49.2461C116.586 49.4805 116.805 49.6992 117.094 49.9023C117.383 50.1055 117.738 50.2969 118.16 50.4766C118.582 50.6562 119.07 50.832 119.625 51.0039C120.555 51.2852 121.371 51.6016 122.074 51.9531C122.785 52.3047 123.379 52.6992 123.855 53.1367C124.332 53.5742 124.691 54.0703 124.934 54.625C125.176 55.1797 125.297 55.8086 125.297 56.5117C125.297 57.2539 125.152 57.918 124.863 58.5039C124.574 59.0898 124.156 59.5859 123.609 59.9922C123.062 60.3984 122.41 60.707 121.652 60.918C120.895 61.1289 120.047 61.2344 119.109 61.2344C118.266 61.2344 117.434 61.125 116.613 60.9062C115.793 60.6797 115.047 60.3398 114.375 59.8867C113.711 59.4336 113.18 58.8555 112.781 58.1523C112.383 57.4492 112.184 56.6172 112.184 55.6562H115.711C115.711 56.1875 115.793 56.6367 115.957 57.0039C116.121 57.3711 116.352 57.668 116.648 57.8945C116.953 58.1211 117.312 58.2852 117.727 58.3867C118.148 58.4883 118.609 58.5391 119.109 58.5391C119.719 58.5391 120.219 58.4531 120.609 58.2812C121.008 58.1094 121.301 57.8711 121.488 57.5664C121.684 57.2617 121.781 56.918 121.781 56.5352ZM133.688 48.3203V50.7109H126.305V48.3203H133.688ZM128.133 45.1914H131.508V57.1797C131.508 57.5469 131.555 57.8281 131.648 58.0234C131.75 58.2188 131.898 58.3555 132.094 58.4336C132.289 58.5039 132.535 58.5391 132.832 58.5391C133.043 58.5391 133.23 58.5312 133.395 58.5156C133.566 58.4922 133.711 58.4688 133.828 58.4453L133.84 60.9297C133.551 61.0234 133.238 61.0977 132.902 61.1523C132.566 61.207 132.195 61.2344 131.789 61.2344C131.047 61.2344 130.398 61.1133 129.844 60.8711C129.297 60.6211 128.875 60.2227 128.578 59.6758C128.281 59.1289 128.133 58.4102 128.133 57.5195V45.1914ZM142.453 58.1406V52.4922C142.453 52.0859 142.387 51.7383 142.254 51.4492C142.121 51.1523 141.914 50.9219 141.633 50.7578C141.359 50.5938 141.004 50.5117 140.566 50.5117C140.191 50.5117 139.867 50.5781 139.594 50.7109C139.32 50.8359 139.109 51.0195 138.961 51.2617C138.812 51.4961 138.738 51.7734 138.738 52.0938H135.363C135.363 51.5547 135.488 51.043 135.738 50.5586C135.988 50.0742 136.352 49.6484 136.828 49.2812C137.305 48.9062 137.871 48.6133 138.527 48.4023C139.191 48.1914 139.934 48.0859 140.754 48.0859C141.738 48.0859 142.613 48.25 143.379 48.5781C144.145 48.9062 144.746 49.3984 145.184 50.0547C145.629 50.7109 145.852 51.5312 145.852 52.5156V57.9414C145.852 58.6367 145.895 59.207 145.98 59.6523C146.066 60.0898 146.191 60.4727 146.355 60.8008V61H142.945C142.781 60.6562 142.656 60.2266 142.57 59.7109C142.492 59.1875 142.453 58.6641 142.453 58.1406ZM142.898 53.2773L142.922 55.1875H141.035C140.59 55.1875 140.203 55.2383 139.875 55.3398C139.547 55.4414 139.277 55.5859 139.066 55.7734C138.855 55.9531 138.699 56.1641 138.598 56.4062C138.504 56.6484 138.457 56.9141 138.457 57.2031C138.457 57.4922 138.523 57.7539 138.656 57.9883C138.789 58.2148 138.98 58.3945 139.23 58.5273C139.48 58.6523 139.773 58.7148 140.109 58.7148C140.617 58.7148 141.059 58.6133 141.434 58.4102C141.809 58.207 142.098 57.957 142.301 57.6602C142.512 57.3633 142.621 57.082 142.629 56.8164L143.52 58.2461C143.395 58.5664 143.223 58.8984 143.004 59.2422C142.793 59.5859 142.523 59.9102 142.195 60.2148C141.867 60.5117 141.473 60.7578 141.012 60.9531C140.551 61.1406 140.004 61.2344 139.371 61.2344C138.566 61.2344 137.836 61.0742 137.18 60.7539C136.531 60.4258 136.016 59.9766 135.633 59.4062C135.258 58.8281 135.07 58.1719 135.07 57.4375C135.07 56.7734 135.195 56.1836 135.445 55.668C135.695 55.1523 136.062 54.7188 136.547 54.3672C137.039 54.0078 137.652 53.7383 138.387 53.5586C139.121 53.3711 139.973 53.2773 140.941 53.2773H142.898ZM151.828 51.0859V61H148.453V48.3203H151.629L151.828 51.0859ZM155.648 48.2383L155.59 51.3672C155.426 51.3438 155.227 51.3242 154.992 51.3086C154.766 51.2852 154.559 51.2734 154.371 51.2734C153.895 51.2734 153.48 51.3359 153.129 51.4609C152.785 51.5781 152.496 51.7539 152.262 51.9883C152.035 52.2227 151.863 52.5078 151.746 52.8438C151.637 53.1797 151.574 53.5625 151.559 53.9922L150.879 53.7812C150.879 52.9609 150.961 52.207 151.125 51.5195C151.289 50.8242 151.527 50.2188 151.84 49.7031C152.16 49.1875 152.551 48.7891 153.012 48.5078C153.473 48.2266 154 48.0859 154.594 48.0859C154.781 48.0859 154.973 48.1016 155.168 48.1328C155.363 48.1562 155.523 48.1914 155.648 48.2383ZM164.039 48.3203V50.7109H156.656V48.3203H164.039ZM158.484 45.1914H161.859V57.1797C161.859 57.5469 161.906 57.8281 162 58.0234C162.102 58.2188 162.25 58.3555 162.445 58.4336C162.641 58.5039 162.887 58.5391 163.184 58.5391C163.395 58.5391 163.582 58.5312 163.746 58.5156C163.918 58.4922 164.062 58.4688 164.18 58.4453L164.191 60.9297C163.902 61.0234 163.59 61.0977 163.254 61.1523C162.918 61.207 162.547 61.2344 162.141 61.2344C161.398 61.2344 160.75 61.1133 160.195 60.8711C159.648 60.6211 159.227 60.2227 158.93 59.6758C158.633 59.1289 158.484 58.4102 158.484 57.5195V45.1914ZM173.461 57.9648V48.3203H176.836V61H173.66L173.461 57.9648ZM173.836 55.3633L174.832 55.3398C174.832 56.1836 174.734 56.9688 174.539 57.6953C174.344 58.4141 174.051 59.0391 173.66 59.5703C173.27 60.0938 172.777 60.5039 172.184 60.8008C171.59 61.0898 170.891 61.2344 170.086 61.2344C169.469 61.2344 168.898 61.1484 168.375 60.9766C167.859 60.7969 167.414 60.5195 167.039 60.1445C166.672 59.7617 166.383 59.2734 166.172 58.6797C165.969 58.0781 165.867 57.3555 165.867 56.5117V48.3203H169.242V56.5352C169.242 56.9102 169.285 57.2266 169.371 57.4844C169.465 57.7422 169.594 57.9531 169.758 58.1172C169.922 58.2812 170.113 58.3984 170.332 58.4688C170.559 58.5391 170.809 58.5742 171.082 58.5742C171.777 58.5742 172.324 58.4336 172.723 58.1523C173.129 57.8711 173.414 57.4883 173.578 57.0039C173.75 56.5117 173.836 55.9648 173.836 55.3633ZM182.789 50.7578V65.875H179.414V48.3203H182.543L182.789 50.7578ZM190.816 54.5195V54.7656C190.816 55.6875 190.707 56.543 190.488 57.332C190.277 58.1211 189.965 58.8086 189.551 59.3945C189.137 59.9727 188.621 60.4258 188.004 60.7539C187.395 61.0742 186.691 61.2344 185.895 61.2344C185.121 61.2344 184.449 61.0781 183.879 60.7656C183.309 60.4531 182.828 60.0156 182.438 59.4531C182.055 58.8828 181.746 58.2227 181.512 57.4727C181.277 56.7227 181.098 55.918 180.973 55.0586V54.4141C181.098 53.4922 181.277 52.6484 181.512 51.8828C181.746 51.1094 182.055 50.4414 182.438 49.8789C182.828 49.3086 183.305 48.8672 183.867 48.5547C184.438 48.2422 185.105 48.0859 185.871 48.0859C186.676 48.0859 187.383 48.2383 187.992 48.543C188.609 48.8477 189.125 49.2852 189.539 49.8555C189.961 50.4258 190.277 51.1055 190.488 51.8945C190.707 52.6836 190.816 53.5586 190.816 54.5195ZM187.43 54.7656V54.5195C187.43 53.9805 187.383 53.4844 187.289 53.0312C187.203 52.5703 187.062 52.168 186.867 51.8242C186.68 51.4805 186.43 51.2148 186.117 51.0273C185.812 50.832 185.441 50.7344 185.004 50.7344C184.543 50.7344 184.148 50.8086 183.82 50.957C183.5 51.1055 183.238 51.3203 183.035 51.6016C182.832 51.8828 182.68 52.2188 182.578 52.6094C182.477 53 182.414 53.4414 182.391 53.9336V55.5625C182.43 56.1406 182.539 56.6602 182.719 57.1211C182.898 57.5742 183.176 57.9336 183.551 58.1992C183.926 58.4648 184.418 58.5977 185.027 58.5977C185.473 58.5977 185.848 58.5 186.152 58.3047C186.457 58.1016 186.703 57.8242 186.891 57.4727C187.086 57.1211 187.223 56.7148 187.301 56.2539C187.387 55.793 187.43 55.2969 187.43 54.7656ZM206.039 46.8555L201.398 61H197.66L204 43.9375H206.379L206.039 46.8555ZM209.895 61L205.242 46.8555L204.867 43.9375H207.27L213.645 61H209.895ZM209.684 54.6484V57.4023H200.672V54.6484H209.684ZM221.871 57.4961C221.871 57.2539 221.801 57.0352 221.66 56.8398C221.52 56.6445 221.258 56.4648 220.875 56.3008C220.5 56.1289 219.957 55.9727 219.246 55.832C218.605 55.6914 218.008 55.5156 217.453 55.3047C216.906 55.0859 216.43 54.8242 216.023 54.5195C215.625 54.2148 215.312 53.8555 215.086 53.4414C214.859 53.0195 214.746 52.5391 214.746 52C214.746 51.4688 214.859 50.9688 215.086 50.5C215.32 50.0312 215.652 49.6172 216.082 49.2578C216.52 48.8906 217.051 48.6055 217.676 48.4023C218.309 48.1914 219.02 48.0859 219.809 48.0859C220.91 48.0859 221.855 48.2617 222.645 48.6133C223.441 48.9648 224.051 49.4492 224.473 50.0664C224.902 50.6758 225.117 51.3711 225.117 52.1523H221.742C221.742 51.8242 221.672 51.5312 221.531 51.2734C221.398 51.0078 221.188 50.8008 220.898 50.6523C220.617 50.4961 220.25 50.418 219.797 50.418C219.422 50.418 219.098 50.4844 218.824 50.6172C218.551 50.7422 218.34 50.9141 218.191 51.1328C218.051 51.3438 217.98 51.5781 217.98 51.8359C217.98 52.0312 218.02 52.207 218.098 52.3633C218.184 52.5117 218.32 52.6484 218.508 52.7734C218.695 52.8984 218.938 53.0156 219.234 53.125C219.539 53.2266 219.914 53.3203 220.359 53.4062C221.273 53.5938 222.09 53.8398 222.809 54.1445C223.527 54.4414 224.098 54.8477 224.52 55.3633C224.941 55.8711 225.152 56.5391 225.152 57.3672C225.152 57.9297 225.027 58.4453 224.777 58.9141C224.527 59.3828 224.168 59.793 223.699 60.1445C223.23 60.4883 222.668 60.7578 222.012 60.9531C221.363 61.1406 220.633 61.2344 219.82 61.2344C218.641 61.2344 217.641 61.0234 216.82 60.6016C216.008 60.1797 215.391 59.6445 214.969 58.9961C214.555 58.3398 214.348 57.668 214.348 56.9805H217.547C217.562 57.4414 217.68 57.8125 217.898 58.0938C218.125 58.375 218.41 58.5781 218.754 58.7031C219.105 58.8281 219.484 58.8906 219.891 58.8906C220.328 58.8906 220.691 58.832 220.98 58.7148C221.27 58.5898 221.488 58.4258 221.637 58.2227C221.793 58.0117 221.871 57.7695 221.871 57.4961ZM234.199 57.4961C234.199 57.2539 234.129 57.0352 233.988 56.8398C233.848 56.6445 233.586 56.4648 233.203 56.3008C232.828 56.1289 232.285 55.9727 231.574 55.832C230.934 55.6914 230.336 55.5156 229.781 55.3047C229.234 55.0859 228.758 54.8242 228.352 54.5195C227.953 54.2148 227.641 53.8555 227.414 53.4414C227.188 53.0195 227.074 52.5391 227.074 52C227.074 51.4688 227.188 50.9688 227.414 50.5C227.648 50.0312 227.98 49.6172 228.41 49.2578C228.848 48.8906 229.379 48.6055 230.004 48.4023C230.637 48.1914 231.348 48.0859 232.137 48.0859C233.238 48.0859 234.184 48.2617 234.973 48.6133C235.77 48.9648 236.379 49.4492 236.801 50.0664C237.23 50.6758 237.445 51.3711 237.445 52.1523H234.07C234.07 51.8242 234 51.5312 233.859 51.2734C233.727 51.0078 233.516 50.8008 233.227 50.6523C232.945 50.4961 232.578 50.418 232.125 50.418C231.75 50.418 231.426 50.4844 231.152 50.6172C230.879 50.7422 230.668 50.9141 230.52 51.1328C230.379 51.3438 230.309 51.5781 230.309 51.8359C230.309 52.0312 230.348 52.207 230.426 52.3633C230.512 52.5117 230.648 52.6484 230.836 52.7734C231.023 52.8984 231.266 53.0156 231.562 53.125C231.867 53.2266 232.242 53.3203 232.688 53.4062C233.602 53.5938 234.418 53.8398 235.137 54.1445C235.855 54.4414 236.426 54.8477 236.848 55.3633C237.27 55.8711 237.48 56.5391 237.48 57.3672C237.48 57.9297 237.355 58.4453 237.105 58.9141C236.855 59.3828 236.496 59.793 236.027 60.1445C235.559 60.4883 234.996 60.7578 234.34 60.9531C233.691 61.1406 232.961 61.2344 232.148 61.2344C230.969 61.2344 229.969 61.0234 229.148 60.6016C228.336 60.1797 227.719 59.6445 227.297 58.9961C226.883 58.3398 226.676 57.668 226.676 56.9805H229.875C229.891 57.4414 230.008 57.8125 230.227 58.0938C230.453 58.375 230.738 58.5781 231.082 58.7031C231.434 58.8281 231.812 58.8906 232.219 58.8906C232.656 58.8906 233.02 58.832 233.309 58.7148C233.598 58.5898 233.816 58.4258 233.965 58.2227C234.121 58.0117 234.199 57.7695 234.199 57.4961ZM243.234 48.3203V61H239.848V48.3203H243.234ZM239.637 45.0156C239.637 44.5234 239.809 44.1172 240.152 43.7969C240.496 43.4766 240.957 43.3164 241.535 43.3164C242.105 43.3164 242.562 43.4766 242.906 43.7969C243.258 44.1172 243.434 44.5234 243.434 45.0156C243.434 45.5078 243.258 45.9141 242.906 46.2344C242.562 46.5547 242.105 46.7148 241.535 46.7148C240.957 46.7148 240.496 46.5547 240.152 46.2344C239.809 45.9141 239.637 45.5078 239.637 45.0156ZM252.879 57.4961C252.879 57.2539 252.809 57.0352 252.668 56.8398C252.527 56.6445 252.266 56.4648 251.883 56.3008C251.508 56.1289 250.965 55.9727 250.254 55.832C249.613 55.6914 249.016 55.5156 248.461 55.3047C247.914 55.0859 247.438 54.8242 247.031 54.5195C246.633 54.2148 246.32 53.8555 246.094 53.4414C245.867 53.0195 245.754 52.5391 245.754 52C245.754 51.4688 245.867 50.9688 246.094 50.5C246.328 50.0312 246.66 49.6172 247.09 49.2578C247.527 48.8906 248.059 48.6055 248.684 48.4023C249.316 48.1914 250.027 48.0859 250.816 48.0859C251.918 48.0859 252.863 48.2617 253.652 48.6133C254.449 48.9648 255.059 49.4492 255.48 50.0664C255.91 50.6758 256.125 51.3711 256.125 52.1523H252.75C252.75 51.8242 252.68 51.5312 252.539 51.2734C252.406 51.0078 252.195 50.8008 251.906 50.6523C251.625 50.4961 251.258 50.418 250.805 50.418C250.43 50.418 250.105 50.4844 249.832 50.6172C249.559 50.7422 249.348 50.9141 249.199 51.1328C249.059 51.3438 248.988 51.5781 248.988 51.8359C248.988 52.0312 249.027 52.207 249.105 52.3633C249.191 52.5117 249.328 52.6484 249.516 52.7734C249.703 52.8984 249.945 53.0156 250.242 53.125C250.547 53.2266 250.922 53.3203 251.367 53.4062C252.281 53.5938 253.098 53.8398 253.816 54.1445C254.535 54.4414 255.105 54.8477 255.527 55.3633C255.949 55.8711 256.16 56.5391 256.16 57.3672C256.16 57.9297 256.035 58.4453 255.785 58.9141C255.535 59.3828 255.176 59.793 254.707 60.1445C254.238 60.4883 253.676 60.7578 253.02 60.9531C252.371 61.1406 251.641 61.2344 250.828 61.2344C249.648 61.2344 248.648 61.0234 247.828 60.6016C247.016 60.1797 246.398 59.6445 245.977 58.9961C245.562 58.3398 245.355 57.668 245.355 56.9805H248.555C248.57 57.4414 248.688 57.8125 248.906 58.0938C249.133 58.375 249.418 58.5781 249.762 58.7031C250.113 58.8281 250.492 58.8906 250.898 58.8906C251.336 58.8906 251.699 58.832 251.988 58.7148C252.277 58.5898 252.496 58.4258 252.645 58.2227C252.801 58.0117 252.879 57.7695 252.879 57.4961ZM264.562 48.3203V50.7109H257.18V48.3203H264.562ZM259.008 45.1914H262.383V57.1797C262.383 57.5469 262.43 57.8281 262.523 58.0234C262.625 58.2188 262.773 58.3555 262.969 58.4336C263.164 58.5039 263.41 58.5391 263.707 58.5391C263.918 58.5391 264.105 58.5312 264.27 58.5156C264.441 58.4922 264.586 58.4688 264.703 58.4453L264.715 60.9297C264.426 61.0234 264.113 61.0977 263.777 61.1523C263.441 61.207 263.07 61.2344 262.664 61.2344C261.922 61.2344 261.273 61.1133 260.719 60.8711C260.172 60.6211 259.75 60.2227 259.453 59.6758C259.156 59.1289 259.008 58.4102 259.008 57.5195V45.1914ZM273.328 58.1406V52.4922C273.328 52.0859 273.262 51.7383 273.129 51.4492C272.996 51.1523 272.789 50.9219 272.508 50.7578C272.234 50.5938 271.879 50.5117 271.441 50.5117C271.066 50.5117 270.742 50.5781 270.469 50.7109C270.195 50.8359 269.984 51.0195 269.836 51.2617C269.688 51.4961 269.613 51.7734 269.613 52.0938H266.238C266.238 51.5547 266.363 51.043 266.613 50.5586C266.863 50.0742 267.227 49.6484 267.703 49.2812C268.18 48.9062 268.746 48.6133 269.402 48.4023C270.066 48.1914 270.809 48.0859 271.629 48.0859C272.613 48.0859 273.488 48.25 274.254 48.5781C275.02 48.9062 275.621 49.3984 276.059 50.0547C276.504 50.7109 276.727 51.5312 276.727 52.5156V57.9414C276.727 58.6367 276.77 59.207 276.855 59.6523C276.941 60.0898 277.066 60.4727 277.23 60.8008V61H273.82C273.656 60.6562 273.531 60.2266 273.445 59.7109C273.367 59.1875 273.328 58.6641 273.328 58.1406ZM273.773 53.2773L273.797 55.1875H271.91C271.465 55.1875 271.078 55.2383 270.75 55.3398C270.422 55.4414 270.152 55.5859 269.941 55.7734C269.73 55.9531 269.574 56.1641 269.473 56.4062C269.379 56.6484 269.332 56.9141 269.332 57.2031C269.332 57.4922 269.398 57.7539 269.531 57.9883C269.664 58.2148 269.855 58.3945 270.105 58.5273C270.355 58.6523 270.648 58.7148 270.984 58.7148C271.492 58.7148 271.934 58.6133 272.309 58.4102C272.684 58.207 272.973 57.957 273.176 57.6602C273.387 57.3633 273.496 57.082 273.504 56.8164L274.395 58.2461C274.27 58.5664 274.098 58.8984 273.879 59.2422C273.668 59.5859 273.398 59.9102 273.07 60.2148C272.742 60.5117 272.348 60.7578 271.887 60.9531C271.426 61.1406 270.879 61.2344 270.246 61.2344C269.441 61.2344 268.711 61.0742 268.055 60.7539C267.406 60.4258 266.891 59.9766 266.508 59.4062C266.133 58.8281 265.945 58.1719 265.945 57.4375C265.945 56.7734 266.07 56.1836 266.32 55.668C266.57 55.1523 266.938 54.7188 267.422 54.3672C267.914 54.0078 268.527 53.7383 269.262 53.5586C269.996 53.3711 270.848 53.2773 271.816 53.2773H273.773ZM282.633 51.0273V61H279.258V48.3203H282.422L282.633 51.0273ZM282.141 54.2148H281.227C281.227 53.2773 281.348 52.4336 281.59 51.6836C281.832 50.9258 282.172 50.2812 282.609 49.75C283.047 49.2109 283.566 48.8008 284.168 48.5195C284.777 48.2305 285.457 48.0859 286.207 48.0859C286.801 48.0859 287.344 48.1719 287.836 48.3438C288.328 48.5156 288.75 48.7891 289.102 49.1641C289.461 49.5391 289.734 50.0352 289.922 50.6523C290.117 51.2695 290.215 52.0234 290.215 52.9141V61H286.816V52.9023C286.816 52.3398 286.738 51.9023 286.582 51.5898C286.426 51.2773 286.195 51.0586 285.891 50.9336C285.594 50.8008 285.227 50.7344 284.789 50.7344C284.336 50.7344 283.941 50.8242 283.605 51.0039C283.277 51.1836 283.004 51.4336 282.785 51.7539C282.574 52.0664 282.414 52.4336 282.305 52.8555C282.195 53.2773 282.141 53.7305 282.141 54.2148ZM298.02 58.5977C298.434 58.5977 298.801 58.5195 299.121 58.3633C299.441 58.1992 299.691 57.9727 299.871 57.6836C300.059 57.3867 300.156 57.0391 300.164 56.6406H303.34C303.332 57.5312 303.094 58.3242 302.625 59.0195C302.156 59.707 301.527 60.25 300.738 60.6484C299.949 61.0391 299.066 61.2344 298.09 61.2344C297.105 61.2344 296.246 61.0703 295.512 60.7422C294.785 60.4141 294.18 59.9609 293.695 59.3828C293.211 58.7969 292.848 58.1172 292.605 57.3438C292.363 56.5625 292.242 55.7266 292.242 54.8359V54.4961C292.242 53.5977 292.363 52.7617 292.605 51.9883C292.848 51.207 293.211 50.5273 293.695 49.9492C294.18 49.3633 294.785 48.9062 295.512 48.5781C296.238 48.25 297.09 48.0859 298.066 48.0859C299.105 48.0859 300.016 48.2852 300.797 48.6836C301.586 49.082 302.203 49.6523 302.648 50.3945C303.102 51.1289 303.332 52 303.34 53.0078H300.164C300.156 52.5859 300.066 52.2031 299.895 51.8594C299.73 51.5156 299.488 51.2422 299.168 51.0391C298.855 50.8281 298.469 50.7227 298.008 50.7227C297.516 50.7227 297.113 50.8281 296.801 51.0391C296.488 51.2422 296.246 51.5234 296.074 51.8828C295.902 52.2344 295.781 52.6367 295.711 53.0898C295.648 53.5352 295.617 54.0039 295.617 54.4961V54.8359C295.617 55.3281 295.648 55.8008 295.711 56.2539C295.773 56.707 295.891 57.1094 296.062 57.4609C296.242 57.8125 296.488 58.0898 296.801 58.293C297.113 58.4961 297.52 58.5977 298.02 58.5977ZM311.133 61.2344C310.148 61.2344 309.266 61.0781 308.484 60.7656C307.703 60.4453 307.039 60.0039 306.492 59.4414C305.953 58.8789 305.539 58.2266 305.25 57.4844C304.961 56.7344 304.816 55.9375 304.816 55.0938V54.625C304.816 53.6641 304.953 52.7852 305.227 51.9883C305.5 51.1914 305.891 50.5 306.398 49.9141C306.914 49.3281 307.539 48.8789 308.273 48.5664C309.008 48.2461 309.836 48.0859 310.758 48.0859C311.656 48.0859 312.453 48.2344 313.148 48.5312C313.844 48.8281 314.426 49.25 314.895 49.7969C315.371 50.3438 315.73 51 315.973 51.7656C316.215 52.5234 316.336 53.3672 316.336 54.2969V55.7031H306.258V53.4531H313.02V53.1953C313.02 52.7266 312.934 52.3086 312.762 51.9414C312.598 51.5664 312.348 51.2695 312.012 51.0508C311.676 50.832 311.246 50.7227 310.723 50.7227C310.277 50.7227 309.895 50.8203 309.574 51.0156C309.254 51.2109 308.992 51.4844 308.789 51.8359C308.594 52.1875 308.445 52.6016 308.344 53.0781C308.25 53.5469 308.203 54.0625 308.203 54.625V55.0938C308.203 55.6016 308.273 56.0703 308.414 56.5C308.562 56.9297 308.77 57.3008 309.035 57.6133C309.309 57.9258 309.637 58.168 310.02 58.3398C310.41 58.5117 310.852 58.5977 311.344 58.5977C311.953 58.5977 312.52 58.4805 313.043 58.2461C313.574 58.0039 314.031 57.6406 314.414 57.1562L316.055 58.9375C315.789 59.3203 315.426 59.6875 314.965 60.0391C314.512 60.3906 313.965 60.6797 313.324 60.9062C312.684 61.125 311.953 61.2344 311.133 61.2344ZM331.09 54.918H326.742V52.1758H331.09C331.762 52.1758 332.309 52.0664 332.73 51.8477C333.152 51.6211 333.461 51.3086 333.656 50.9102C333.852 50.5117 333.949 50.0625 333.949 49.5625C333.949 49.0547 333.852 48.582 333.656 48.1445C333.461 47.707 333.152 47.3555 332.73 47.0898C332.309 46.8242 331.762 46.6914 331.09 46.6914H327.961V61H324.445V43.9375H331.09C332.426 43.9375 333.57 44.1797 334.523 44.6641C335.484 45.1406 336.219 45.8008 336.727 46.6445C337.234 47.4883 337.488 48.4531 337.488 49.5391C337.488 50.6406 337.234 51.5938 336.727 52.3984C336.219 53.2031 335.484 53.8242 334.523 54.2617C333.57 54.6992 332.426 54.918 331.09 54.918ZM343.266 43V61H339.879V43H343.266ZM352.898 58.1406V52.4922C352.898 52.0859 352.832 51.7383 352.699 51.4492C352.566 51.1523 352.359 50.9219 352.078 50.7578C351.805 50.5938 351.449 50.5117 351.012 50.5117C350.637 50.5117 350.312 50.5781 350.039 50.7109C349.766 50.8359 349.555 51.0195 349.406 51.2617C349.258 51.4961 349.184 51.7734 349.184 52.0938H345.809C345.809 51.5547 345.934 51.043 346.184 50.5586C346.434 50.0742 346.797 49.6484 347.273 49.2812C347.75 48.9062 348.316 48.6133 348.973 48.4023C349.637 48.1914 350.379 48.0859 351.199 48.0859C352.184 48.0859 353.059 48.25 353.824 48.5781C354.59 48.9062 355.191 49.3984 355.629 50.0547C356.074 50.7109 356.297 51.5312 356.297 52.5156V57.9414C356.297 58.6367 356.34 59.207 356.426 59.6523C356.512 60.0898 356.637 60.4727 356.801 60.8008V61H353.391C353.227 60.6562 353.102 60.2266 353.016 59.7109C352.938 59.1875 352.898 58.6641 352.898 58.1406ZM353.344 53.2773L353.367 55.1875H351.48C351.035 55.1875 350.648 55.2383 350.32 55.3398C349.992 55.4414 349.723 55.5859 349.512 55.7734C349.301 55.9531 349.145 56.1641 349.043 56.4062C348.949 56.6484 348.902 56.9141 348.902 57.2031C348.902 57.4922 348.969 57.7539 349.102 57.9883C349.234 58.2148 349.426 58.3945 349.676 58.5273C349.926 58.6523 350.219 58.7148 350.555 58.7148C351.062 58.7148 351.504 58.6133 351.879 58.4102C352.254 58.207 352.543 57.957 352.746 57.6602C352.957 57.3633 353.066 57.082 353.074 56.8164L353.965 58.2461C353.84 58.5664 353.668 58.8984 353.449 59.2422C353.238 59.5859 352.969 59.9102 352.641 60.2148C352.312 60.5117 351.918 60.7578 351.457 60.9531C350.996 61.1406 350.449 61.2344 349.816 61.2344C349.012 61.2344 348.281 61.0742 347.625 60.7539C346.977 60.4258 346.461 59.9766 346.078 59.4062C345.703 58.8281 345.516 58.1719 345.516 57.4375C345.516 56.7734 345.641 56.1836 345.891 55.668C346.141 55.1523 346.508 54.7188 346.992 54.3672C347.484 54.0078 348.098 53.7383 348.832 53.5586C349.566 53.3711 350.418 53.2773 351.387 53.2773H353.344ZM365.109 48.3203V50.7109H357.727V48.3203H365.109ZM359.555 45.1914H362.93V57.1797C362.93 57.5469 362.977 57.8281 363.07 58.0234C363.172 58.2188 363.32 58.3555 363.516 58.4336C363.711 58.5039 363.957 58.5391 364.254 58.5391C364.465 58.5391 364.652 58.5312 364.816 58.5156C364.988 58.4922 365.133 58.4688 365.25 58.4453L365.262 60.9297C364.973 61.0234 364.66 61.0977 364.324 61.1523C363.988 61.207 363.617 61.2344 363.211 61.2344C362.469 61.2344 361.82 61.1133 361.266 60.8711C360.719 60.6211 360.297 60.2227 360 59.6758C359.703 59.1289 359.555 58.4102 359.555 57.5195V45.1914ZM371.332 61H367.934V47.1953C367.934 46.2344 368.121 45.4258 368.496 44.7695C368.879 44.1055 369.414 43.6055 370.102 43.2695C370.797 42.9258 371.621 42.7539 372.574 42.7539C372.887 42.7539 373.188 42.7773 373.477 42.8242C373.766 42.8633 374.047 42.9141 374.32 42.9766L374.285 45.5195C374.137 45.4805 373.98 45.4531 373.816 45.4375C373.652 45.4219 373.461 45.4141 373.242 45.4141C372.836 45.4141 372.488 45.4844 372.199 45.625C371.918 45.7578 371.703 45.957 371.555 46.2227C371.406 46.4883 371.332 46.8125 371.332 47.1953V61ZM373.863 48.3203V50.7109H366.047V48.3203H373.863ZM375.094 54.7891V54.543C375.094 53.6133 375.227 52.7578 375.492 51.9766C375.758 51.1875 376.145 50.5039 376.652 49.9258C377.16 49.3477 377.785 48.8984 378.527 48.5781C379.27 48.25 380.121 48.0859 381.082 48.0859C382.043 48.0859 382.898 48.25 383.648 48.5781C384.398 48.8984 385.027 49.3477 385.535 49.9258C386.051 50.5039 386.441 51.1875 386.707 51.9766C386.973 52.7578 387.105 53.6133 387.105 54.543V54.7891C387.105 55.7109 386.973 56.5664 386.707 57.3555C386.441 58.1367 386.051 58.8203 385.535 59.4062C385.027 59.9844 384.402 60.4336 383.66 60.7539C382.918 61.0742 382.066 61.2344 381.105 61.2344C380.145 61.2344 379.289 61.0742 378.539 60.7539C377.797 60.4336 377.168 59.9844 376.652 59.4062C376.145 58.8203 375.758 58.1367 375.492 57.3555C375.227 56.5664 375.094 55.7109 375.094 54.7891ZM378.469 54.543V54.7891C378.469 55.3203 378.516 55.8164 378.609 56.2773C378.703 56.7383 378.852 57.1445 379.055 57.4961C379.266 57.8398 379.539 58.1094 379.875 58.3047C380.211 58.5 380.621 58.5977 381.105 58.5977C381.574 58.5977 381.977 58.5 382.312 58.3047C382.648 58.1094 382.918 57.8398 383.121 57.4961C383.324 57.1445 383.473 56.7383 383.566 56.2773C383.668 55.8164 383.719 55.3203 383.719 54.7891V54.543C383.719 54.0273 383.668 53.543 383.566 53.0898C383.473 52.6289 383.32 52.2227 383.109 51.8711C382.906 51.5117 382.637 51.2305 382.301 51.0273C381.965 50.8242 381.559 50.7227 381.082 50.7227C380.605 50.7227 380.199 50.8242 379.863 51.0273C379.535 51.2305 379.266 51.5117 379.055 51.8711C378.852 52.2227 378.703 52.6289 378.609 53.0898C378.516 53.543 378.469 54.0273 378.469 54.543ZM392.555 51.0859V61H389.18V48.3203H392.355L392.555 51.0859ZM396.375 48.2383L396.316 51.3672C396.152 51.3438 395.953 51.3242 395.719 51.3086C395.492 51.2852 395.285 51.2734 395.098 51.2734C394.621 51.2734 394.207 51.3359 393.855 51.4609C393.512 51.5781 393.223 51.7539 392.988 51.9883C392.762 52.2227 392.59 52.5078 392.473 52.8438C392.363 53.1797 392.301 53.5625 392.285 53.9922L391.605 53.7812C391.605 52.9609 391.688 52.207 391.852 51.5195C392.016 50.8242 392.254 50.2188 392.566 49.7031C392.887 49.1875 393.277 48.7891 393.738 48.5078C394.199 48.2266 394.727 48.0859 395.32 48.0859C395.508 48.0859 395.699 48.1016 395.895 48.1328C396.09 48.1562 396.25 48.1914 396.375 48.2383ZM401.344 50.9453V61H397.957V48.3203H401.133L401.344 50.9453ZM400.875 54.2148H399.938C399.938 53.332 400.043 52.5195 400.254 51.7773C400.473 51.0273 400.789 50.3789 401.203 49.832C401.625 49.2773 402.145 48.8477 402.762 48.543C403.379 48.2383 404.094 48.0859 404.906 48.0859C405.469 48.0859 405.984 48.1719 406.453 48.3438C406.922 48.5078 407.324 48.7695 407.66 49.1289C408.004 49.4805 408.27 49.9414 408.457 50.5117C408.645 51.0742 408.738 51.75 408.738 52.5391V61H405.363V52.9141C405.363 52.3359 405.285 51.8906 405.129 51.5781C404.973 51.2656 404.75 51.0469 404.461 50.9219C404.18 50.7969 403.84 50.7344 403.441 50.7344C403.004 50.7344 402.621 50.8242 402.293 51.0039C401.973 51.1836 401.707 51.4336 401.496 51.7539C401.285 52.0664 401.129 52.4336 401.027 52.8555C400.926 53.2773 400.875 53.7305 400.875 54.2148ZM408.422 53.8281L407.215 53.9805C407.215 53.1523 407.316 52.3828 407.52 51.6719C407.73 50.9609 408.039 50.3359 408.445 49.7969C408.859 49.2578 409.371 48.8398 409.98 48.543C410.59 48.2383 411.293 48.0859 412.09 48.0859C412.699 48.0859 413.254 48.1758 413.754 48.3555C414.254 48.5273 414.68 48.8047 415.031 49.1875C415.391 49.5625 415.664 50.0547 415.852 50.6641C416.047 51.2734 416.145 52.0195 416.145 52.9023V61H412.758V52.9023C412.758 52.3164 412.68 51.8711 412.523 51.5664C412.375 51.2539 412.156 51.0391 411.867 50.9219C411.586 50.7969 411.25 50.7344 410.859 50.7344C410.453 50.7344 410.098 50.8164 409.793 50.9805C409.488 51.1367 409.234 51.3555 409.031 51.6367C408.828 51.918 408.676 52.2461 408.574 52.6211C408.473 52.9883 408.422 53.3906 408.422 53.8281Z" fill="#888888"/>
<path d="M110.062 92.0469L101.742 119H92.9062L105.445 84.875H111.047L110.062 92.0469ZM116.953 119L108.609 92.0469L107.531 84.875H113.203L125.812 119H116.953ZM116.625 106.273V112.625H99.1172V106.273H116.625ZM135.258 115.906L142.055 84.875H146.109L148.312 87.5234L141.07 119H136.594L135.258 115.906ZM133.453 84.875L139.195 116.141L137.719 119H132.539L125.297 84.875H133.453ZM152.039 115.977L157.734 84.875H165.867L158.625 119H153.469L152.039 115.977ZM149.039 84.875L156 116.094L154.594 119H150.117L142.711 87.4766L145.008 84.875H149.039ZM186.68 109.93C186.68 109.398 186.602 108.922 186.445 108.5C186.289 108.062 186 107.656 185.578 107.281C185.156 106.906 184.547 106.531 183.75 106.156C182.969 105.766 181.938 105.359 180.656 104.938C179.156 104.438 177.711 103.875 176.32 103.25C174.93 102.609 173.688 101.867 172.594 101.023C171.5 100.164 170.633 99.1641 169.992 98.0234C169.352 96.8672 169.031 95.5234 169.031 93.9922C169.031 92.5234 169.359 91.2031 170.016 90.0312C170.672 88.8438 171.586 87.8359 172.758 87.0078C173.945 86.1641 175.336 85.5234 176.93 85.0859C178.523 84.6328 180.266 84.4062 182.156 84.4062C184.656 84.4062 186.859 84.8438 188.766 85.7188C190.688 86.5781 192.188 87.8047 193.266 89.3984C194.359 90.9766 194.906 92.8438 194.906 95H186.727C186.727 94.1406 186.547 93.3828 186.188 92.7266C185.844 92.0703 185.32 91.5547 184.617 91.1797C183.914 90.8047 183.031 90.6172 181.969 90.6172C180.938 90.6172 180.07 90.7734 179.367 91.0859C178.664 91.3984 178.133 91.8203 177.773 92.3516C177.414 92.8672 177.234 93.4375 177.234 94.0625C177.234 94.5781 177.375 95.0469 177.656 95.4688C177.953 95.875 178.367 96.2578 178.898 96.6172C179.445 96.9766 180.102 97.3203 180.867 97.6484C181.648 97.9766 182.523 98.2969 183.492 98.6094C185.305 99.1875 186.914 99.8359 188.32 100.555C189.742 101.258 190.938 102.062 191.906 102.969C192.891 103.859 193.633 104.875 194.133 106.016C194.648 107.156 194.906 108.445 194.906 109.883C194.906 111.414 194.609 112.773 194.016 113.961C193.422 115.148 192.57 116.156 191.461 116.984C190.352 117.797 189.023 118.414 187.477 118.836C185.93 119.258 184.203 119.469 182.297 119.469C180.547 119.469 178.82 119.25 177.117 118.812C175.43 118.359 173.898 117.672 172.523 116.75C171.148 115.812 170.047 114.617 169.219 113.164C168.406 111.695 168 109.953 168 107.938H176.25C176.25 108.938 176.383 109.781 176.648 110.469C176.914 111.156 177.305 111.711 177.82 112.133C178.336 112.539 178.969 112.836 179.719 113.023C180.469 113.195 181.328 113.281 182.297 113.281C183.344 113.281 184.188 113.133 184.828 112.836C185.469 112.523 185.938 112.117 186.234 111.617C186.531 111.102 186.68 110.539 186.68 109.93ZM222.188 119H214.617L214.664 112.672H222.188C223.75 112.672 225.07 112.297 226.148 111.547C227.242 110.797 228.07 109.68 228.633 108.195C229.211 106.695 229.5 104.852 229.5 102.664V101.188C229.5 99.5469 229.336 98.1094 229.008 96.875C228.695 95.625 228.227 94.5859 227.602 93.7578C226.977 92.9141 226.195 92.2812 225.258 91.8594C224.336 91.4375 223.273 91.2266 222.07 91.2266H214.477V84.875H222.07C224.383 84.875 226.5 85.2734 228.422 86.0703C230.359 86.8516 232.031 87.9766 233.438 89.4453C234.859 90.8984 235.953 92.625 236.719 94.625C237.5 96.6094 237.891 98.8125 237.891 101.234V102.664C237.891 105.07 237.5 107.273 236.719 109.273C235.953 111.273 234.867 113 233.461 114.453C232.055 115.906 230.391 117.031 228.469 117.828C226.562 118.609 224.469 119 222.188 119ZM219.328 84.875V119H211.102V84.875H219.328ZM254.086 119.469C252.023 119.469 250.18 119.148 248.555 118.508C246.93 117.852 245.555 116.953 244.43 115.812C243.32 114.672 242.469 113.359 241.875 111.875C241.297 110.391 241.008 108.82 241.008 107.164V106.273C241.008 104.414 241.266 102.695 241.781 101.117C242.297 99.5234 243.062 98.1328 244.078 96.9453C245.094 95.7578 246.367 94.8359 247.898 94.1797C249.43 93.5078 251.211 93.1719 253.242 93.1719C255.039 93.1719 256.648 93.4609 258.07 94.0391C259.492 94.6172 260.695 95.4453 261.68 96.5234C262.68 97.6016 263.438 98.9062 263.953 100.438C264.484 101.969 264.75 103.688 264.75 105.594V108.805H244.031V103.859H257.039V103.25C257.055 102.406 256.906 101.688 256.594 101.094C256.297 100.5 255.859 100.047 255.281 99.7344C254.703 99.4219 254 99.2656 253.172 99.2656C252.312 99.2656 251.602 99.4531 251.039 99.8281C250.492 100.203 250.062 100.719 249.75 101.375C249.453 102.016 249.242 102.758 249.117 103.602C248.992 104.445 248.93 105.336 248.93 106.273V107.164C248.93 108.102 249.055 108.953 249.305 109.719C249.57 110.484 249.945 111.141 250.43 111.688C250.93 112.219 251.523 112.633 252.211 112.93C252.914 113.227 253.711 113.375 254.602 113.375C255.68 113.375 256.742 113.172 257.789 112.766C258.836 112.359 259.734 111.688 260.484 110.75L264.07 115.016C263.555 115.75 262.82 116.461 261.867 117.148C260.93 117.836 259.805 118.398 258.492 118.836C257.18 119.258 255.711 119.469 254.086 119.469ZM275.93 98.5156V128.75H268.031V93.6406H275.391L275.93 98.5156ZM291.492 106.016V106.508C291.492 108.352 291.281 110.062 290.859 111.641C290.438 113.219 289.812 114.594 288.984 115.766C288.156 116.938 287.125 117.852 285.891 118.508C284.672 119.148 283.258 119.469 281.648 119.469C280.133 119.469 278.828 119.133 277.734 118.461C276.641 117.789 275.727 116.859 274.992 115.672C274.258 114.484 273.664 113.125 273.211 111.594C272.758 110.062 272.398 108.445 272.133 106.742V106.109C272.398 104.281 272.758 102.586 273.211 101.023C273.664 99.4453 274.258 98.0703 274.992 96.8984C275.727 95.7266 276.633 94.8125 277.711 94.1562C278.805 93.5 280.109 93.1719 281.625 93.1719C283.234 93.1719 284.648 93.4766 285.867 94.0859C287.102 94.6953 288.133 95.5703 288.961 96.7109C289.805 97.8359 290.438 99.1875 290.859 100.766C291.281 102.344 291.492 104.094 291.492 106.016ZM283.594 106.508V106.016C283.594 105.031 283.523 104.133 283.383 103.32C283.242 102.492 283.016 101.773 282.703 101.164C282.406 100.555 282.008 100.086 281.508 99.7578C281.008 99.4297 280.391 99.2656 279.656 99.2656C278.812 99.2656 278.102 99.3984 277.523 99.6641C276.961 99.9141 276.508 100.305 276.164 100.836C275.836 101.352 275.602 102 275.461 102.781C275.336 103.547 275.281 104.445 275.297 105.477V107.398C275.266 108.586 275.383 109.633 275.648 110.539C275.914 111.43 276.375 112.125 277.031 112.625C277.688 113.125 278.578 113.375 279.703 113.375C280.453 113.375 281.078 113.203 281.578 112.859C282.078 112.5 282.477 112.008 282.773 111.383C283.07 110.742 283.281 110.008 283.406 109.18C283.531 108.352 283.594 107.461 283.594 106.508ZM303.352 83V119H295.43V83H303.352ZM307.242 106.578V106.086C307.242 104.227 307.508 102.516 308.039 100.953C308.57 99.375 309.352 98.0078 310.383 96.8516C311.414 95.6953 312.688 94.7969 314.203 94.1562C315.719 93.5 317.469 93.1719 319.453 93.1719C321.453 93.1719 323.211 93.5 324.727 94.1562C326.258 94.7969 327.539 95.6953 328.57 96.8516C329.602 98.0078 330.383 99.375 330.914 100.953C331.445 102.516 331.711 104.227 331.711 106.086V106.578C331.711 108.422 331.445 110.133 330.914 111.711C330.383 113.273 329.602 114.641 328.57 115.812C327.539 116.969 326.266 117.867 324.75 118.508C323.234 119.148 321.484 119.469 319.5 119.469C317.516 119.469 315.758 119.148 314.227 118.508C312.695 117.867 311.414 116.969 310.383 115.812C309.352 114.641 308.57 113.273 308.039 111.711C307.508 110.133 307.242 108.422 307.242 106.578ZM315.141 106.086V106.578C315.141 107.531 315.211 108.422 315.352 109.25C315.492 110.078 315.727 110.805 316.055 111.43C316.383 112.039 316.828 112.516 317.391 112.859C317.953 113.203 318.656 113.375 319.5 113.375C320.328 113.375 321.016 113.203 321.562 112.859C322.125 112.516 322.57 112.039 322.898 111.43C323.227 110.805 323.461 110.078 323.602 109.25C323.742 108.422 323.812 107.531 323.812 106.578V106.086C323.812 105.164 323.742 104.297 323.602 103.484C323.461 102.656 323.227 101.93 322.898 101.305C322.57 100.664 322.125 100.164 321.562 99.8047C321 99.4453 320.297 99.2656 319.453 99.2656C318.625 99.2656 317.93 99.4453 317.367 99.8047C316.82 100.164 316.383 100.664 316.055 101.305C315.727 101.93 315.492 102.656 315.352 103.484C315.211 104.297 315.141 105.164 315.141 106.086ZM342.633 116.023L349.195 93.6406H357.68L347.484 122.773C347.266 123.414 346.977 124.102 346.617 124.836C346.258 125.586 345.766 126.297 345.141 126.969C344.516 127.641 343.711 128.188 342.727 128.609C341.758 129.031 340.555 129.242 339.117 129.242C338.352 129.242 337.789 129.203 337.43 129.125C337.086 129.062 336.555 128.945 335.836 128.773V123.125C336.039 123.125 336.211 123.125 336.352 123.125C336.508 123.125 336.68 123.125 336.867 123.125C337.711 123.125 338.383 123.039 338.883 122.867C339.398 122.695 339.789 122.445 340.055 122.117C340.336 121.789 340.555 121.391 340.711 120.922L342.633 116.023ZM340.969 93.6406L345.961 111.383L346.828 119.75H341.531L332.508 93.6406H340.969ZM367.711 99.0078V119H359.812V93.6406H367.219L367.711 99.0078ZM366.75 105.453L364.945 105.5C364.945 103.719 365.156 102.078 365.578 100.578C366 99.0781 366.625 97.7734 367.453 96.6641C368.281 95.5547 369.297 94.6953 370.5 94.0859C371.719 93.4766 373.125 93.1719 374.719 93.1719C375.828 93.1719 376.836 93.3438 377.742 93.6875C378.648 94.0156 379.43 94.5391 380.086 95.2578C380.742 95.9609 381.242 96.8828 381.586 98.0234C381.945 99.1484 382.125 100.5 382.125 102.078V119H374.227V103.086C374.227 102.008 374.102 101.195 373.852 100.648C373.617 100.102 373.273 99.7344 372.82 99.5469C372.367 99.3594 371.812 99.2656 371.156 99.2656C370.469 99.2656 369.852 99.4219 369.305 99.7344C368.758 100.047 368.289 100.484 367.898 101.047C367.523 101.594 367.234 102.242 367.031 102.992C366.844 103.742 366.75 104.562 366.75 105.453ZM381.234 105.453L379.031 105.5C379.031 103.719 379.227 102.078 379.617 100.578C380.023 99.0781 380.625 97.7734 381.422 96.6641C382.234 95.5547 383.242 94.6953 384.445 94.0859C385.648 93.4766 387.047 93.1719 388.641 93.1719C389.797 93.1719 390.859 93.3438 391.828 93.6875C392.797 94.0312 393.633 94.5859 394.336 95.3516C395.039 96.1172 395.586 97.1328 395.977 98.3984C396.367 99.6484 396.562 101.195 396.562 103.039V119H388.641V103.039C388.641 101.992 388.516 101.203 388.266 100.672C388.031 100.125 387.688 99.7578 387.234 99.5703C386.781 99.3672 386.242 99.2656 385.617 99.2656C384.867 99.2656 384.219 99.4219 383.672 99.7344C383.125 100.047 382.664 100.484 382.289 101.047C381.93 101.594 381.664 102.242 381.492 102.992C381.32 103.742 381.234 104.562 381.234 105.453ZM413.367 119.469C411.305 119.469 409.461 119.148 407.836 118.508C406.211 117.852 404.836 116.953 403.711 115.812C402.602 114.672 401.75 113.359 401.156 111.875C400.578 110.391 400.289 108.82 400.289 107.164V106.273C400.289 104.414 400.547 102.695 401.062 101.117C401.578 99.5234 402.344 98.1328 403.359 96.9453C404.375 95.7578 405.648 94.8359 407.18 94.1797C408.711 93.5078 410.492 93.1719 412.523 93.1719C414.32 93.1719 415.93 93.4609 417.352 94.0391C418.773 94.6172 419.977 95.4453 420.961 96.5234C421.961 97.6016 422.719 98.9062 423.234 100.438C423.766 101.969 424.031 103.688 424.031 105.594V108.805H403.312V103.859H416.32V103.25C416.336 102.406 416.188 101.688 415.875 101.094C415.578 100.5 415.141 100.047 414.562 99.7344C413.984 99.4219 413.281 99.2656 412.453 99.2656C411.594 99.2656 410.883 99.4531 410.32 99.8281C409.773 100.203 409.344 100.719 409.031 101.375C408.734 102.016 408.523 102.758 408.398 103.602C408.273 104.445 408.211 105.336 408.211 106.273V107.164C408.211 108.102 408.336 108.953 408.586 109.719C408.852 110.484 409.227 111.141 409.711 111.688C410.211 112.219 410.805 112.633 411.492 112.93C412.195 113.227 412.992 113.375 413.883 113.375C414.961 113.375 416.023 113.172 417.07 112.766C418.117 112.359 419.016 111.688 419.766 110.75L423.352 115.016C422.836 115.75 422.102 116.461 421.148 117.148C420.211 117.836 419.086 118.398 417.773 118.836C416.461 119.258 414.992 119.469 413.367 119.469ZM435 99.0547V119H427.102V93.6406H434.508L435 99.0547ZM434.062 105.453L432.211 105.5C432.211 103.562 432.445 101.836 432.914 100.32C433.383 98.7891 434.047 97.4922 434.906 96.4297C435.766 95.3672 436.789 94.5625 437.977 94.0156C439.18 93.4531 440.516 93.1719 441.984 93.1719C443.156 93.1719 444.227 93.3438 445.195 93.6875C446.18 94.0312 447.023 94.5859 447.727 95.3516C448.445 96.1172 448.992 97.1328 449.367 98.3984C449.758 99.6484 449.953 101.195 449.953 103.039V119H442.008V103.016C442.008 102 441.867 101.227 441.586 100.695C441.305 100.148 440.898 99.7734 440.367 99.5703C439.836 99.3672 439.188 99.2656 438.422 99.2656C437.609 99.2656 436.922 99.4219 436.359 99.7344C435.797 100.047 435.344 100.484 435 101.047C434.672 101.594 434.43 102.242 434.273 102.992C434.133 103.742 434.062 104.562 434.062 105.453ZM467.695 93.6406V99.125H452.414V93.6406H467.695ZM455.625 87.3359H463.523V110.727C463.523 111.398 463.602 111.922 463.758 112.297C463.914 112.656 464.18 112.914 464.555 113.07C464.945 113.211 465.461 113.281 466.102 113.281C466.555 113.281 466.93 113.273 467.227 113.258C467.523 113.227 467.805 113.188 468.07 113.141V118.789C467.398 119.008 466.695 119.172 465.961 119.281C465.227 119.406 464.445 119.469 463.617 119.469C461.93 119.469 460.484 119.203 459.281 118.672C458.094 118.141 457.188 117.305 456.562 116.164C455.938 115.023 455.625 113.539 455.625 111.711V87.3359Z" fill="black"/>
<path d="M1134 0H1348C1356.28 0 1363 6.71573 1363 15V148C1363 156.284 1356.28 163 1348 163H1134V0Z" fill="#5584B0"/>
<path d="M1212.5 117.5L1212.5 45.5L1284.5 45.5L1284.5 117.5L1212.5 117.5Z" fill="white" fill-opacity="0.01"/>
<path d="M1221.5 81.5125L1221.5 108.5L1275.5 108.5L1275.5 81.5" stroke="white" stroke-width="7.24" stroke-linecap="round" stroke-linejoin="round"/>
<path d="M1262 68L1248.5 54.5L1235 68" stroke="white" stroke-width="7.24" stroke-linecap="round" stroke-linejoin="round"/>
<path d="M1248.49 93.5L1248.49 54.5" stroke="white" stroke-width="7.24" stroke-linecap="round" stroke-linejoin="round"/>
</svg>
